<svg class="h-12 w-12 fill-white" xmlns="http://www.w3.org/2000/svg" width="1000" height="1000" fill="none"
  viewBox="0 0 1000 1000">
  <circle cx="500" cy="500" r="500" fill="#fff"></circle>
  <path fill="#576FA1"
    d="M387.104 641.023l70.122 14.878 149.542 31.287c7.329 1.531 9.955 4.266 5.032 11.924-35.116 54.041-69.794 108.41-104.581 162.669-4.704 7.548-8.642 6.126-12.799 0l-39.82-61.37L342.143 625.38a32965.476 32965.476 0 01-68.481-106.441c-6.892-10.939-4.813-14.549 7.877-15.971 49.118-5.47 98.454-10.94 147.354-16.628 32.818-3.61 65.636-5.579 98.455-10.064 28.114-3.829 56.338-6.236 84.561-9.518 28.224-3.281 59.073-7.329 88.938-11.705H252.33a30.95 30.95 0 01-17.941-3.732 30.95 30.95 0 01-12.689-13.224c-31.943-51.853-65.199-102.502-97.689-153.918-2.954-4.594-9.298-9.517-5.798-15.205 3.501-5.689 9.955-2.407 15.425-2.407h734.473c5.36 0 12.361-2.516 15.424 2.625 3.063 5.142-3.391 10.283-6.345 14.878a45628.673 45628.673 0 01-102.065 160.372c-39.053 61.042-78.107 121.865-117.27 183.017a20.457 20.457 0 01-19.254 9.408c-80.514 2.187-161.028 1.75-241.433 1.75h-9.736l-.328 2.406z">
  </path>
</svg>
