<svg width="36" height="36" viewBox="0 0 36 36" fill="none" xmlns="http://www.w3.org/2000/svg">
<g clip-path="url(#clip0_753_1391)">
<path d="M27.8182 0H8.18182C3.66312 0 0 3.66312 0 8.18182V27.8182C0 32.3369 3.66312 36 8.18182 36H27.8182C32.3369 36 36 32.3369 36 27.8182V8.18182C36 3.66312 32.3369 0 27.8182 0Z" fill="#E0E0E0"/>
<path d="M30.2793 9.77939C30.2658 9.69786 30.2331 9.62069 30.1841 9.55416C30.135 9.48763 30.071 9.43363 29.9971 9.39656L25.1036 6.90062C25.0047 6.85193 24.893 6.83563 24.7843 6.85405C24.6756 6.87247 24.5755 6.92467 24.4982 7.00322L21.0234 10.5584L26.8066 13.6395L30.1335 10.2353C30.1922 10.1763 30.2361 10.1042 30.2614 10.0249C30.2868 9.94565 30.2929 9.86149 30.2793 9.77939ZM26.6707 12.7619L22.1941 10.3771L24.9089 7.59921L29.452 9.9161L26.6707 12.7619Z" fill="#275BDE"/>
<path d="M5.86418 25.7662C5.80611 25.825 5.76275 25.8966 5.73762 25.9752C5.71249 26.0539 5.70631 26.1374 5.71958 26.2189C5.73285 26.3004 5.7652 26.3777 5.81399 26.4443C5.86277 26.5109 5.92662 26.5651 6.00031 26.6024L10.8947 29.0989C10.9667 29.1346 11.046 29.1532 11.1263 29.1532C11.1959 29.1531 11.2649 29.1392 11.3291 29.1124C11.3933 29.0856 11.4516 29.0463 11.5006 28.9968L15.2835 25.1395L9.50776 22.051L5.86418 25.7662ZM14.1114 25.3189L11.0911 28.402L6.54856 26.084L9.64219 22.9292L14.1114 25.3189Z" fill="#275BDE"/>
<path d="M8.81573 16.4196L11.1607 17.6087C11.1712 17.614 11.1832 17.6154 11.1946 17.6127C11.206 17.61 11.2162 17.6034 11.2232 17.5941C11.2302 17.5847 11.2338 17.5731 11.2332 17.5614C11.2325 17.5497 11.2278 17.5386 11.2199 17.53C10.4406 16.6416 10.3104 15.1466 10.9894 13.8068C11.6658 12.4728 12.9399 11.6969 14.1126 11.7918C14.1243 11.7934 14.1362 11.7908 14.1462 11.7844C14.1562 11.778 14.1636 11.7683 14.167 11.7569C14.1704 11.7456 14.1697 11.7334 14.1649 11.7225C14.1602 11.7117 14.1517 11.7029 14.141 11.6977L11.8105 10.5157C10.4923 9.84722 8.7532 10.6271 7.92643 12.2576C7.09966 13.8881 7.49728 15.7511 8.81573 16.4196Z" fill="#275BDE"/>
<path d="M27.6316 19.9593L26.543 19.4074C26.5843 18.0605 26.003 16.8444 24.9117 16.2905L24.4515 16.0563L26.5783 13.8824L20.7943 10.8015L18.5707 13.0752L16.8716 12.2129C15.8996 11.7201 14.7438 11.8625 13.7524 12.4838C12.9166 12.5557 12.0668 13.1929 11.599 14.1151C11.1135 15.0726 11.1275 16.1177 11.5552 16.8151C11.5925 17.6295 11.9218 18.4033 12.4829 18.9947L9.74109 21.8027L15.5242 24.8836L18.2526 22.0887L21.2167 23.5759C22.3094 24.1299 23.6342 23.88 24.6968 23.0504L25.7839 23.6015C25.9088 23.6642 26.0469 23.6962 26.1866 23.695C26.7733 23.695 27.4591 23.1795 27.8697 22.3692C28.3799 21.3642 28.2733 20.2848 27.6316 19.9593ZM20.9299 11.6789L25.4062 14.0637L23.7862 15.7195L19.2351 13.4114L20.9299 11.6789ZM15.3881 24.0068L10.9115 21.622L13.8729 18.5889L18.416 20.906L15.3881 24.0068ZM27.4511 22.158C27.0953 22.8597 26.5456 23.2266 26.1866 23.2266C26.1207 23.2278 26.0554 23.2132 25.9962 23.184C25.6455 23.0061 25.5571 22.2072 25.9644 21.404C26.3202 20.7026 26.8699 20.3354 27.2288 20.3354C27.2948 20.3341 27.3601 20.3488 27.4193 20.378C27.77 20.5562 27.8584 21.3551 27.4511 22.158Z" fill="#275BDE"/>
</g>
<defs>
<clipPath id="clip0_753_1391">
<rect width="36" height="36" fill="white"/>
</clipPath>
</defs>
</svg>
