<svg width="221" height="101" viewBox="0 0 221 101" fill="none" xmlns="http://www.w3.org/2000/svg">
<g clip-path="url(#clip0_102_61)">
<g style="mix-blend-mode:hard-light" opacity="0.3" filter="url(#filter0_f_102_61)">
<path d="M31.5625 76.2188L25.5852 75.1047L24.6888 79.9144L29.1953 81.8192L31.5625 76.2188ZM39.6562 78.625L41.0022 72.6956L40.9887 72.6926L40.9752 72.6896L39.6562 78.625ZM65.5625 75.0938L61.7207 70.3811L61.7144 70.3862L61.7081 70.3914L65.5625 75.0938ZM71.3125 36.3438H77.3927V30.2635H71.3125V36.3438ZM58.9062 36.3438V30.2635H52.826V36.3438H58.9062ZM58.9062 40.5625V46.6427H64.9865V40.5625H58.9062ZM58.7812 40.5625L53.85 44.1195L55.6701 46.6427H58.7812V40.5625ZM54.0312 37.0938L51.435 42.5918L51.4558 42.6016L51.4768 42.6113L54.0312 37.0938ZM33.375 39.5938L29.299 35.0821L29.2912 35.0891L29.2835 35.0962L33.375 39.5938ZM33.625 62.7812L29.6731 67.402L29.6819 67.4095L29.6907 67.417L33.625 62.7812ZM54.1875 65.4375L56.6992 70.9747L56.712 70.9689L56.7247 70.963L54.1875 65.4375ZM59 62H65.0802V45.6273L54.3936 58.0314L59 62ZM55.625 69.8125L52.9058 64.3742L52.8957 64.3793L52.8856 64.3844L55.625 69.8125ZM39.4688 70.125L41.2683 64.3172L41.2554 64.3132L41.2424 64.3092L39.4688 70.125ZM33.1875 67.5L36.6179 62.4799L28.9188 57.2189L27.2102 66.386L33.1875 67.5ZM43.4375 45.9375L47.5616 50.4053L47.58 50.3883L47.5983 50.3711L43.4375 45.9375ZM55.5625 45.0312L53.1764 50.6237L53.2081 50.6372L53.2399 50.6504L55.5625 45.0312ZM58.8438 47.3438H64.924V45.4324L63.8303 43.8648L58.8438 47.3438ZM58.8438 55.125L64.0454 58.2733L64.924 56.8218V55.125H58.8438ZM55.8438 57.4375L58.502 62.9058L58.5175 62.8983L58.533 62.8907L55.8438 57.4375ZM43.5 56.7188L39.5205 61.3158L39.5373 61.3303L39.5543 61.3448L43.5 56.7188ZM29.1953 81.8192C31.69 82.8737 34.7829 83.7706 38.3373 84.5604L40.9752 72.6896C37.7796 71.9794 35.4767 71.2722 33.9297 70.6183L29.1953 81.8192ZM38.3103 84.5544C42.203 85.438 46.3367 85.8615 50.6875 85.8615V73.701C47.1217 73.701 43.9012 73.3537 41.0022 72.6956L38.3103 84.5544ZM50.6875 85.8615C57.8523 85.8615 64.2777 84.0086 69.4169 79.7961L61.7081 70.3914C59.2223 72.4289 55.731 73.701 50.6875 73.701V85.8615ZM69.4043 79.8064C75.067 75.1901 77.3927 68.3848 77.3927 60.6875H65.2323C65.2323 65.9485 63.7247 68.7474 61.7207 70.3811L69.4043 79.8064ZM77.3927 60.6875V36.3438H65.2323V60.6875H77.3927ZM71.3125 30.2635H58.9062V42.424H71.3125V30.2635ZM52.826 36.3438V40.5625H64.9865V36.3438H52.826ZM58.9062 34.4823H58.7812V46.6427H58.9062V34.4823ZM63.7125 37.0055C61.9285 34.5323 59.2842 32.8255 56.5857 31.5762L51.4768 42.6113C52.3293 43.006 52.9234 43.3625 53.3204 43.6525C53.5152 43.7947 53.6478 43.9102 53.7335 43.9934C53.8188 44.0762 53.8504 44.12 53.85 44.1195L63.7125 37.0055ZM56.6275 31.5957C53.3479 30.047 49.6314 29.4198 45.7188 29.4198V41.5802C48.3894 41.5802 50.2146 42.0155 51.435 42.5918L56.6275 31.5957ZM45.7188 29.4198C39.4387 29.4198 33.7224 31.0858 29.299 35.0821L37.451 44.1054C39.0693 42.6434 41.5822 41.5802 45.7188 41.5802V29.4198ZM29.2835 35.0962C24.7974 39.1773 22.7948 44.6712 22.7948 50.8125H34.9552C34.9552 47.4538 35.9526 45.4686 37.4665 44.0913L29.2835 35.0962ZM22.7948 50.8125V51.3125H34.9552V50.8125H22.7948ZM22.7948 51.3125C22.7948 57.6649 24.9027 63.322 29.6731 67.402L37.5769 58.1605C36.014 56.8238 34.9552 54.8351 34.9552 51.3125H22.7948ZM29.6907 67.417C34.1783 71.2256 39.7756 72.8927 45.9375 72.8927V60.7323C42.0161 60.7323 39.405 59.7119 37.5593 58.1455L29.6907 67.417ZM45.9375 72.8927C49.8431 72.8927 53.5685 72.3948 56.6992 70.9747L51.6758 59.9003C50.7648 60.3136 48.9902 60.7323 45.9375 60.7323V72.8927ZM56.7247 70.963C59.3623 69.7519 61.7431 68.1313 63.6064 65.9686L54.3936 58.0314C53.9235 58.577 53.0961 59.2481 51.6503 59.912L56.7247 70.963ZM52.9198 62V64.125H65.0802V62H52.9198ZM52.9198 64.125C52.9198 64.3658 52.8943 64.4898 52.8857 64.5248C52.8785 64.5541 52.8848 64.5158 52.9274 64.444C52.9471 64.4108 52.9696 64.3789 52.9931 64.3504C53.0165 64.3221 53.0358 64.3033 53.0465 64.2937C53.0693 64.2733 53.0374 64.3084 52.9058 64.3742L58.3442 75.2508C60.3613 74.2422 62.1466 72.7368 63.3851 70.6497C64.6112 68.5835 65.0802 66.3212 65.0802 64.125H52.9198ZM52.8856 64.3844C51.5287 65.0691 50.0743 65.4198 48.4375 65.4198V77.5802C51.9257 77.5802 55.2629 76.8059 58.3644 75.2406L52.8856 64.3844ZM48.4375 65.4198C46.0422 65.4198 43.6588 65.0579 41.2683 64.3172L37.6692 75.9328C41.1954 77.0254 44.7912 77.5802 48.4375 77.5802V65.4198ZM41.2424 64.3092C38.4184 63.448 37.0676 62.7872 36.6179 62.4799L29.7571 72.5201C31.8074 73.9211 34.6441 75.0103 37.6951 75.9408L41.2424 64.3092ZM27.2102 66.386L25.5852 75.1047L37.5398 77.3328L39.1648 68.614L27.2102 66.386ZM47.4865 51.5625V50.8438H35.326V51.5625H47.4865ZM47.4865 50.8438C47.4865 50.5191 47.5388 50.4106 47.5318 50.4274C47.5303 50.4312 47.5255 50.4404 47.5206 50.4473C47.5162 50.4535 47.525 50.439 47.5616 50.4053L39.3134 41.4697C36.5842 43.989 35.326 47.3085 35.326 50.8438H47.4865ZM47.5983 50.3711C47.4198 50.5386 47.3899 50.468 47.7912 50.353C48.2088 50.2334 48.9412 50.1115 50.0938 50.1115V37.951C46.4224 37.951 42.3026 38.6642 39.2767 41.5039L47.5983 50.3711ZM50.0938 50.1115C51.5376 50.1115 52.5183 50.3429 53.1764 50.6237L57.9486 39.4388C55.4817 38.3862 52.8165 37.951 50.0938 37.951V50.1115ZM53.2399 50.6504C53.7085 50.844 53.9547 50.9951 54.0521 51.0637C54.1469 51.1306 54.0284 51.0681 53.8572 50.8227L63.8303 43.8648C62.2691 41.627 59.9787 40.2775 57.8851 39.4121L53.2399 50.6504ZM52.7635 47.3438V55.125H64.924V47.3438H52.7635ZM53.6421 51.9767C53.7796 51.7495 53.9049 51.6049 53.9712 51.5348C54.0375 51.4649 54.0635 51.4496 54.0224 51.4813C53.9822 51.5123 53.8948 51.5751 53.7458 51.665C53.5978 51.7543 53.4033 51.8617 53.1545 51.9843L58.533 62.8907C60.3511 61.9941 62.6465 60.5845 64.0454 58.2733L53.6421 51.9767ZM53.1855 51.9692C52.7885 52.1622 51.8492 52.451 50.0312 52.451V64.6115C52.9633 64.6115 55.899 64.1712 58.502 62.9058L53.1855 51.9692ZM50.0312 52.451C48.9571 52.451 48.2493 52.3381 47.8212 52.2193C47.4077 52.1046 47.3516 52.0124 47.4457 52.0927L39.5543 61.3448C42.5519 63.9016 46.4381 64.6115 50.0312 64.6115V52.451ZM47.4795 52.1217C47.4837 52.1254 47.5048 52.1452 47.5293 52.1794C47.5537 52.2135 47.5637 52.2371 47.5632 52.2359C47.5623 52.2337 47.4865 52.0474 47.4865 51.5625H35.326C35.326 55.1559 36.515 58.714 39.5205 61.3158L47.4795 52.1217ZM78.9688 66H72.8885V72.0802H78.9688V66ZM91.9375 66V72.0802H98.0177V66H91.9375ZM91.9375 51.5625L86.6305 48.5952L85.8573 49.9781V51.5625H91.9375ZM96.8125 46.75L99.8887 51.9946L99.9074 51.9837L99.926 51.9726L96.8125 46.75ZM107.25 45.0938L105.946 51.0326L106.016 51.0478L106.086 51.0614L107.25 45.0938ZM109.438 45.8125L106.644 51.213L115.518 55.8028V45.8125H109.438ZM109.438 36.0938H115.518V32.0403L111.776 30.4813L109.438 36.0938ZM107.438 35.5L105.963 41.3987L106.033 41.4161L106.103 41.4319L107.438 35.5ZM91.8438 42.75V48.8302H95.6375L97.3051 45.4226L91.8438 42.75ZM91.7188 42.75L85.6386 42.7797L85.6681 48.8302H91.7188V42.75ZM91.6875 36.3438L97.7676 36.3141L97.7381 30.2635H91.6875V36.3438ZM78.9688 36.3438V30.2635H72.8885V36.3438H78.9688ZM78.9688 72.0802H91.9375V59.9198H78.9688V72.0802ZM98.0177 66V51.5625H85.8573V66H98.0177ZM97.2445 54.5298C97.7334 53.6555 98.5297 52.7917 99.8887 51.9946L93.7363 41.5054C90.762 43.2499 88.3083 45.5945 86.6305 48.5952L97.2445 54.5298ZM99.926 51.9726C101.152 51.2418 102.42 50.8927 103.844 50.8927V38.7323C100.226 38.7323 96.8066 39.6748 93.699 41.5274L99.926 51.9726ZM103.844 50.8927C105.056 50.8927 105.701 50.9786 105.946 51.0326L108.554 39.1549C107.091 38.8339 105.465 38.7323 103.844 38.7323V50.8927ZM106.086 51.0614C106.522 51.1467 106.673 51.2281 106.644 51.213L112.231 40.412C110.994 39.7719 109.686 39.3742 108.414 39.1261L106.086 51.0614ZM115.518 45.8125V36.0938H103.357V45.8125H115.518ZM111.776 30.4813C110.821 30.0835 109.777 29.7942 108.772 29.5681L106.103 41.4319C106.415 41.5022 106.655 41.5652 106.832 41.6178C106.919 41.6438 106.985 41.6653 107.032 41.6815C107.079 41.6979 107.1 41.7066 107.099 41.7062L111.776 30.4813ZM108.912 29.6013C107.368 29.2152 105.624 29.1073 103.938 29.1073V41.2677C105.251 41.2677 105.841 41.3681 105.963 41.3987L108.912 29.6013ZM103.938 29.1073C100.024 29.1073 96.3856 30.2729 93.1665 32.4992L100.083 42.5008C101.323 41.6437 102.559 41.2677 103.938 41.2677V29.1073ZM93.1665 32.4992C90.2869 34.4907 87.8966 36.9831 86.3824 40.0774L97.3051 45.4226C97.7075 44.6002 98.5047 43.5926 100.083 42.5008L93.1665 32.4992ZM91.8438 36.6698H91.7188V48.8302H91.8438V36.6698ZM97.7989 42.7203L97.7676 36.3141L85.6074 36.3734L85.6386 42.7797L97.7989 42.7203ZM91.6875 30.2635H78.9688V42.424H91.6875V30.2635ZM72.8885 36.3438V66H85.049V36.3438H72.8885ZM137.906 61.6562L143.976 61.2992L142.989 44.524L133.013 58.0467L137.906 61.6562ZM139.031 66L133.875 69.2225L135.661 72.0802H139.031V66ZM151.656 66V72.0802H157.736V66H151.656ZM151.656 65.5625H157.736V63.9187L156.908 62.4989L151.656 65.5625ZM145.938 37.9375L142.633 43.0413L142.641 43.0467L142.65 43.052L145.938 37.9375ZM113.156 46.1562H107.076V52.2035L113.123 52.2364L113.156 46.1562ZM124.656 46.2188L124.623 52.2989L130.736 52.3321V46.2188H124.656ZM126.188 43.1875L129.037 48.5584L129.08 48.5359L129.122 48.5128L126.188 43.1875ZM136.25 43.2188L133.089 48.4125L133.113 48.4275L133.138 48.4423L136.25 43.2188ZM137.719 47.9375L137.659 54.0174L143.799 54.0775V47.9375H137.719ZM124.938 47.8125L124.997 41.7326L124.989 41.7325L124.938 47.8125ZM113.844 50.0938L117.114 55.2198L117.125 55.2126L113.844 50.0938ZM124.094 53.75L121.815 48.113L121.794 48.1216L121.773 48.1303L124.094 53.75ZM128.844 53.1562L128.908 47.0764L128.876 47.076H128.844V53.1562ZM137.75 53.25H143.83V47.2335L137.814 47.1701L137.75 53.25ZM124.031 58.8125L120.529 63.783L120.567 63.8098L120.606 63.8361L124.031 58.8125ZM104.139 56.9688C104.139 61.7306 106.064 65.9269 109.975 68.8233L117.213 59.0517C116.623 58.6148 116.299 58.1653 116.299 56.9688H104.139ZM109.975 68.8233C113.689 71.5744 118.428 72.5177 123.344 72.5177V60.3573C119.759 60.3573 117.999 59.6339 117.213 59.0517L109.975 68.8233ZM123.344 72.5177C127.636 72.5177 131.614 71.9933 135.021 70.665L130.604 59.335C129.095 59.9234 126.76 60.3573 123.344 60.3573V72.5177ZM135.021 70.665C137.909 69.5392 140.861 67.8924 142.799 65.2658L133.013 58.0467C133.075 57.9636 133.004 58.0927 132.593 58.3624C132.186 58.6297 131.548 58.9669 130.604 59.335L135.021 70.665ZM131.837 62.0133C131.913 63.3061 132.077 64.6483 132.428 65.8962L144.134 62.6038C144.11 62.5184 144.025 62.1314 143.976 61.2992L131.837 62.0133ZM132.428 65.8962C132.745 67.0245 133.209 68.1562 133.875 69.2225L144.187 62.7775C144.229 62.8438 144.192 62.8088 144.134 62.6038L132.428 65.8962ZM139.031 72.0802H151.656V59.9198H139.031V72.0802ZM157.736 66V65.5625H145.576V66H157.736ZM156.908 62.4989C156.863 62.4217 156.726 62.1484 156.6 61.5618L144.713 64.1257C145.045 65.6641 145.574 67.2033 146.404 68.6261L156.908 62.4989ZM156.6 61.5618C156.471 60.9643 156.393 60.2621 156.393 59.4375H144.232C144.232 61.0296 144.383 62.5982 144.713 64.1257L156.6 61.5618ZM156.393 59.4375V46.7188H144.232V59.4375H156.393ZM156.393 46.7188C156.393 41.029 154.164 35.9976 149.225 32.823L142.65 43.052C143.545 43.6274 144.232 44.4502 144.232 46.7188H156.393ZM149.242 32.8337C144.835 29.98 138.743 29.0448 132.062 29.0448V41.2052C138.09 41.2052 141.249 42.145 142.633 43.0413L149.242 32.8337ZM132.062 29.0448C125.57 29.0448 119.716 30.0523 115.105 32.6917L121.145 43.2458C123.159 42.0935 126.597 41.2052 132.062 41.2052V29.0448ZM115.105 32.6917C110.409 35.379 107.076 39.6544 107.076 45.4688H119.236C119.236 45.0748 119.216 44.3502 121.145 43.2458L115.105 32.6917ZM107.076 45.4688V46.1562H119.236V45.4688H107.076ZM113.123 52.2364L124.623 52.2989L124.689 40.1386L113.189 40.0761L113.123 52.2364ZM130.736 46.2188V45.5312H118.576V46.2188H130.736ZM130.736 45.5312C130.736 46.0865 130.58 46.8146 130.129 47.5052C129.704 48.1567 129.221 48.461 129.037 48.5584L123.338 37.8166C122.133 38.4556 120.885 39.4214 119.949 40.8541C118.987 42.326 118.576 43.9551 118.576 45.5312H130.736ZM129.122 48.5128C128.852 48.6617 128.808 48.6152 129.209 48.5458C129.584 48.481 130.183 48.424 131.062 48.424V36.2635C128.585 36.2635 125.67 36.5307 123.253 37.8622L129.122 48.5128ZM131.062 48.424C132.104 48.424 132.8 48.4867 133.223 48.558C133.427 48.5925 133.511 48.6197 133.504 48.6174C133.503 48.6168 133.339 48.565 133.089 48.4125L139.411 38.025C136.882 36.4856 133.615 36.2635 131.062 36.2635V48.424ZM133.138 48.4423C132.889 48.2941 132.448 47.9539 132.093 47.3406C131.731 46.7183 131.639 46.1256 131.639 45.75H143.799C143.799 42.4199 142.109 39.6318 139.362 37.9952L133.138 48.4423ZM131.639 45.75V47.9375H143.799V45.75H131.639ZM137.778 41.8576L124.997 41.7326L124.878 53.8924L137.659 54.0174L137.778 41.8576ZM124.989 41.7325C119.595 41.6872 114.476 42.4662 110.562 44.9749L117.125 55.2126C118.086 54.5963 120.363 53.8545 124.886 53.8925L124.989 41.7325ZM110.574 44.9678C106.282 47.7057 104.139 52.0031 104.139 56.9688H116.299C116.299 56.2641 116.434 55.9358 116.503 55.8046C116.564 55.6889 116.698 55.485 117.114 55.2197L110.574 44.9678ZM128.736 56C128.736 56.3289 128.659 57.0691 128.139 57.8829C127.602 58.7243 126.893 59.1724 126.415 59.3697L121.773 48.1303C120.337 48.7234 118.909 49.7444 117.892 51.3359C116.893 52.8997 116.576 54.567 116.576 56H128.736ZM126.373 59.387C126.192 59.4599 126.264 59.4012 126.77 59.3379C127.239 59.2793 127.917 59.2365 128.844 59.2365V47.076C126.532 47.076 123.946 47.2514 121.815 48.113L126.373 59.387ZM128.78 59.2361L137.686 59.3299L137.814 47.1701L128.908 47.0764L128.78 59.2361ZM131.67 53.25V54.3438H143.83V53.25H131.67ZM131.67 54.3438C131.67 54.2208 131.687 54.0247 131.76 53.7866C131.834 53.5453 131.945 53.3252 132.073 53.1434C132.326 52.784 132.506 52.7616 132.218 52.9054L137.657 63.7821C139.244 62.9884 140.83 61.8306 142.021 60.1378C143.254 58.3831 143.83 56.3795 143.83 54.3438H131.67ZM132.218 52.9054C131.294 53.3677 130.12 53.6698 128.562 53.6698V65.8302C131.755 65.8302 134.831 65.1948 137.657 63.7821L132.218 52.9054ZM128.562 53.6698C127.786 53.6698 127.317 53.6099 127.083 53.5615C126.828 53.5087 127.048 53.5102 127.456 53.7889L120.606 63.8361C123.096 65.5336 126.167 65.8302 128.562 65.8302V53.6698ZM127.533 53.842C127.847 54.0633 128.209 54.4358 128.462 54.9545C128.706 55.4528 128.736 55.8526 128.736 56H116.576C116.576 58.9844 117.823 61.8759 120.529 63.783L127.533 53.842ZM155.312 66H149.232V72.0802H155.312V66ZM192.469 66V72.0802H198.549V66H192.469ZM192.469 58.375H198.549V52.2948H192.469V58.375ZM173.031 58.375L169.2 53.6539L155.89 64.4552H173.031V58.375ZM191.438 43.4375L195.269 48.1586L197.518 46.3336V43.4375H191.438ZM191.438 36.3438H197.518V30.2635H191.438V36.3438ZM155.812 36.3438V30.2635H149.732V36.3438H155.812ZM155.812 44.3125H149.732V50.3927H155.812V44.3125ZM173.688 44.3125L177.513 49.0383L190.862 38.2323H173.688V44.3125ZM155.312 59.1875L151.487 54.4617L149.232 56.2868V59.1875H155.312ZM155.312 72.0802H192.469V59.9198H155.312V72.0802ZM198.549 66V58.375H186.389V66H198.549ZM192.469 52.2948H173.031V64.4552H192.469V52.2948ZM176.863 63.0961L195.269 48.1586L187.606 38.7164L169.2 53.6539L176.863 63.0961ZM197.518 43.4375V36.3438H185.357V43.4375H197.518ZM191.438 30.2635H155.812V42.424H191.438V30.2635ZM149.732 36.3438V44.3125H161.893V36.3438H149.732ZM155.812 50.3927H173.688V38.2323H155.812V50.3927ZM169.862 39.5867L151.487 54.4617L159.138 63.9133L177.513 49.0383L169.862 39.5867ZM149.232 59.1875V66H161.393V59.1875H149.232Z" fill="#96D7A0"/>
</g>
<g style="mix-blend-mode:hard-light" filter="url(#filter1_f_102_61)">
<path d="M31.5625 76.2188L23.7461 74.7619L22.5738 81.0515L28.4669 83.5424L31.5625 76.2188ZM39.6562 78.625L41.4163 70.8712L41.3987 70.8672L41.3811 70.8633L39.6562 78.625ZM65.5625 75.0938L60.5386 68.931L60.5303 68.9377L60.5221 68.9445L65.5625 75.0938ZM71.3125 36.3438H79.2635V28.3927H71.3125V36.3438ZM58.9062 36.3438V28.3927H50.9552V36.3438H58.9062ZM58.9062 40.5625V48.5135H66.8573V40.5625H58.9062ZM58.7812 40.5625L52.3327 45.2139L54.7128 48.5135H58.7812V40.5625ZM54.0312 37.0938L50.6361 44.2835L50.6634 44.2964L50.6908 44.3091L54.0312 37.0938ZM33.375 39.5938L28.0448 33.6939L28.0346 33.7031L28.0245 33.7123L33.375 39.5938ZM33.625 62.7812L28.4571 68.8237L28.4686 68.8336L28.4802 68.8434L33.625 62.7812ZM54.1875 65.4375L57.472 72.6784L57.4887 72.6708L57.5054 72.6632L54.1875 65.4375ZM59 62H66.951V40.5895L52.9762 56.8103L59 62ZM55.625 69.8125L52.0692 62.7009L52.0559 62.7075L52.0427 62.7142L55.625 69.8125ZM39.4688 70.125L41.8221 62.5302L41.8051 62.5249L41.7881 62.5198L39.4688 70.125ZM33.1875 67.5L37.6734 60.9353L27.6053 54.0554L25.3711 66.0432L33.1875 67.5ZM43.4375 45.9375L48.8305 51.78L48.8546 51.7577L48.8785 51.7353L43.4375 45.9375ZM55.5625 45.0312L52.4422 52.3444L52.4836 52.3621L52.5253 52.3793L55.5625 45.0312ZM58.8438 47.3438H66.7948V44.8442L65.3646 42.7943L58.8438 47.3438ZM58.8438 55.125L65.6459 59.2421L66.7948 57.3438V55.125H58.8438ZM55.8438 57.4375L59.3199 64.5884L59.3402 64.5785L59.3604 64.5686L55.8438 57.4375ZM43.5 56.7188L38.296 62.7302L38.318 62.7493L38.3402 62.7682L43.5 56.7188ZM28.4669 83.5424C31.1074 84.6585 34.3218 85.5846 37.9314 86.3867L41.3811 70.8633C38.2407 70.1654 36.0593 69.4873 34.6581 68.8951L28.4669 83.5424ZM37.8962 86.3788C41.9417 87.2971 46.2159 87.7323 50.6875 87.7323V71.8302C47.2424 71.8302 44.1624 71.4946 41.4163 70.8712L37.8962 86.3788ZM50.6875 87.7323C58.1786 87.7323 65.0555 85.7901 70.6029 81.243L60.5221 68.9445C58.4445 70.6474 55.4047 71.8302 50.6875 71.8302V87.7323ZM70.5864 81.2565C76.812 76.1813 79.2635 68.7597 79.2635 60.6875H63.3615C63.3615 65.5737 61.9797 67.7562 60.5386 68.931L70.5864 81.2565ZM79.2635 60.6875V36.3438H63.3615V60.6875H79.2635ZM71.3125 28.3927H58.9062V44.2948H71.3125V28.3927ZM50.9552 36.3438V40.5625H66.8573V36.3438H50.9552ZM58.9062 32.6115H58.7812V48.5135H58.9062V32.6115ZM65.2298 35.9111C63.179 33.0679 60.2082 31.1917 57.3717 29.8784L50.6908 44.3091C51.4595 44.6649 51.9414 44.962 52.2171 45.1633C52.4951 45.3663 52.4692 45.4031 52.3327 45.2139L65.2298 35.9111ZM57.4264 29.904C53.83 28.2057 49.8225 27.549 45.7188 27.549V43.451C48.1984 43.451 49.7325 43.8568 50.6361 44.2835L57.4264 29.904ZM45.7188 27.549C39.1089 27.549 32.8998 29.3077 28.0448 33.6939L38.7052 45.4936C39.8919 44.4215 41.912 43.451 45.7188 43.451V27.549ZM28.0245 33.7123C23.0812 38.2094 20.924 44.2431 20.924 50.8125H36.826C36.826 47.8819 37.6688 46.4365 38.7255 45.4752L28.0245 33.7123ZM20.924 50.8125V51.3125H36.826V50.8125H20.924ZM20.924 51.3125C20.924 58.1002 23.1932 64.3218 28.4571 68.8237L38.7929 56.7388C37.7234 55.8241 36.826 54.3998 36.826 51.3125H20.924ZM28.4802 68.8434C33.3742 72.9969 39.4309 74.7635 45.9375 74.7635V58.8615C42.3608 58.8615 40.2092 57.9406 38.7698 56.7191L28.4802 68.8434ZM45.9375 74.7635C49.9744 74.7635 53.9998 74.2534 57.472 72.6784L50.903 58.1966C50.3335 58.4549 48.859 58.8615 45.9375 58.8615V74.7635ZM57.5054 72.6632C60.3263 71.3679 62.9462 69.6012 65.0238 67.1897L52.9762 56.8103C52.7205 57.1071 52.132 57.6321 50.8696 58.2118L57.5054 72.6632ZM51.049 62V64.125H66.951V62H51.049ZM51.049 64.125C51.049 64.33 51.0132 64.0037 51.3185 63.4893C51.462 63.2474 51.6335 63.0476 51.7988 62.8997C51.8773 62.8294 51.9447 62.7796 51.9935 62.7469C52.0419 62.7145 52.0695 62.7007 52.0692 62.7009L59.1808 76.9241C61.4724 75.7783 63.5475 74.042 64.994 71.6045C66.4243 69.1942 66.951 66.5866 66.951 64.125H51.049ZM52.0427 62.7142C50.9542 63.2635 49.7894 63.549 48.4375 63.549V79.451C52.2106 79.451 55.8374 78.6115 59.2073 76.9108L52.0427 62.7142ZM48.4375 63.549C46.2346 63.549 44.0377 63.2167 41.8221 62.5302L37.1154 77.7198C40.8164 78.8666 44.5987 79.451 48.4375 79.451V63.549ZM41.7881 62.5198C40.4906 62.1241 39.4959 61.7677 38.7612 61.4607C38.3979 61.3089 38.1277 61.1813 37.9355 61.082C37.7393 60.9805 37.6634 60.9284 37.6734 60.9353L28.7016 74.0647C30.9981 75.634 34.0634 76.7891 37.1494 77.7302L41.7881 62.5198ZM25.3711 66.0432L23.7461 74.7619L39.3789 77.6756L41.0039 68.9568L25.3711 66.0432ZM49.3573 51.5625V50.8438H33.4552V51.5625H49.3573ZM49.3573 50.8438C49.3573 50.7302 49.3737 50.8694 49.2604 51.143C49.1402 51.4335 48.964 51.6568 48.8305 51.78L38.0445 40.095C34.8922 43.0048 33.4552 46.8425 33.4552 50.8438H49.3573ZM48.8785 51.7353C48.4368 52.1498 48.1228 52.2041 48.3062 52.1516C48.511 52.0929 49.0609 51.9823 50.0938 51.9823V36.0802C46.2415 36.0802 41.5368 36.8173 37.9965 40.1397L48.8785 51.7353ZM50.0938 51.9823C51.3409 51.9823 52.0624 52.1824 52.4422 52.3444L58.6828 37.7181C55.9376 36.5468 53.0133 36.0802 50.0938 36.0802V51.9823ZM52.5253 52.3793C52.8976 52.5332 53.0153 52.6218 52.9743 52.5929C52.9301 52.5618 52.6429 52.3518 52.3229 51.8932L65.3646 42.7943C63.5153 40.1436 60.8567 38.6161 58.5997 37.6832L52.5253 52.3793ZM50.8927 47.3438V55.125H66.7948V47.3438H50.8927ZM52.0416 51.0079C52.2583 50.65 52.469 50.4004 52.6126 50.2487C52.7561 50.0971 52.8571 50.0174 52.8802 49.9996C52.9046 49.9808 52.8773 50.004 52.7794 50.0631C52.6828 50.1214 52.5354 50.2037 52.3271 50.3064L59.3604 64.5686C61.27 63.6269 63.964 62.0207 65.6459 59.2421L52.0416 51.0079ZM52.3676 50.2866C52.31 50.3146 51.6778 50.5802 50.0312 50.5802V66.4823C53.1347 66.4823 56.3775 66.0187 59.3199 64.5884L52.3676 50.2866ZM50.0312 50.5802C49.0785 50.5802 48.5464 50.4791 48.3215 50.4166C48.1156 50.3595 48.3188 50.3785 48.6598 50.6693L38.3402 62.7682C41.8243 65.7399 46.2363 66.4823 50.0312 66.4823V50.5802ZM48.704 50.7073C48.8168 50.8049 48.9384 50.9337 49.0509 51.091C49.1634 51.2482 49.2435 51.4014 49.2965 51.532C49.4028 51.7936 49.3573 51.8537 49.3573 51.5625H33.4552C33.4552 55.5756 34.7952 59.6997 38.296 62.7302L48.704 50.7073ZM78.9688 66H71.0177V73.951H78.9688V66ZM91.9375 66V73.951H99.8885V66H91.9375ZM91.9375 51.5625L84.9976 47.6821L83.9865 49.4906V51.5625H91.9375ZM96.8125 46.75L100.835 53.6084L100.86 53.594L100.884 53.5795L96.8125 46.75ZM107.25 45.0938L105.545 52.8599L105.636 52.8798L105.727 52.8976L107.25 45.0938ZM109.438 45.8125L105.785 52.8748L117.389 58.8768V45.8125H109.438ZM109.438 36.0938H117.389V30.7931L112.496 28.7543L109.438 36.0938ZM107.438 35.5L105.509 43.2136L105.6 43.2365L105.692 43.2571L107.438 35.5ZM91.8438 42.75V50.701H96.8048L98.9855 46.2449L91.8438 42.75ZM91.7188 42.75L83.7678 42.7888L83.8064 50.701H91.7188V42.75ZM91.6875 36.3438L99.6384 36.305L99.5999 28.3927H91.6875V36.3438ZM78.9688 36.3438V28.3927H71.0177V36.3438H78.9688ZM78.9688 73.951H91.9375V58.049H78.9688V73.951ZM99.8885 66V51.5625H83.9865V66H99.8885ZM98.8774 55.4429C99.1834 54.8956 99.7247 54.2597 100.835 53.6084L92.7898 39.8916C89.567 41.782 86.8583 44.3544 84.9976 47.6821L98.8774 55.4429ZM100.884 53.5795C101.82 53.0214 102.757 52.7635 103.844 52.7635V36.8615C99.8885 36.8615 96.1381 37.8953 92.7411 39.9205L100.884 53.5795ZM103.844 52.7635C104.384 52.7635 104.798 52.7817 105.104 52.8069C105.417 52.8328 105.55 52.8609 105.545 52.8599L108.955 37.3276C107.305 36.9655 105.528 36.8615 103.844 36.8615V52.7635ZM105.727 52.8976C105.798 52.9115 105.853 52.9241 105.891 52.934C105.93 52.9439 105.951 52.9505 105.956 52.9522C105.961 52.9538 105.948 52.9498 105.919 52.938C105.891 52.9262 105.845 52.9059 105.785 52.8748L113.09 38.7502C111.658 38.0094 110.173 37.563 108.773 37.2899L105.727 52.8976ZM117.389 45.8125V36.0938H101.486V45.8125H117.389ZM112.496 28.7543C111.401 28.2983 110.24 27.9808 109.183 27.7429L105.692 43.2571C105.972 43.3202 106.171 43.373 106.3 43.4113C106.434 43.4513 106.45 43.4626 106.379 43.4332L112.496 28.7543ZM109.366 27.7864C107.603 27.3455 105.682 27.2365 103.938 27.2365V43.1385C104.513 43.1385 104.937 43.1589 105.23 43.1852C105.539 43.2127 105.608 43.2384 105.509 43.2136L109.366 27.7864ZM103.938 27.2365C99.6342 27.2365 95.6261 28.5236 92.1024 30.9605L101.148 44.0395C102.082 43.3931 102.949 43.1385 103.938 43.1385V27.2365ZM92.1024 30.9605C89.0227 33.0904 86.3873 35.8113 84.702 39.2551L98.9855 46.2449C99.2169 45.7721 99.769 44.9929 101.148 44.0395L92.1024 30.9605ZM91.8438 34.799H91.7188V50.701H91.8438V34.799ZM99.6697 42.7112L99.6384 36.305L83.7366 36.3825L83.7678 42.7888L99.6697 42.7112ZM91.6875 28.3927H78.9688V44.2948H91.6875V28.3927ZM71.0177 36.3438V66H86.9198V36.3438H71.0177ZM137.906 61.6562L145.844 61.1893L144.553 39.2525L131.508 56.9361L137.906 61.6562ZM139.031 66L132.289 70.214L134.624 73.951H139.031V66ZM151.656 66V73.951H159.607V66H151.656ZM151.656 65.5625H159.607V63.4129L158.524 61.5562L151.656 65.5625ZM145.938 37.9375L141.616 44.6117L141.627 44.6187L141.638 44.6257L145.938 37.9375ZM113.156 46.1562H105.205V54.0642L113.113 54.1072L113.156 46.1562ZM124.656 46.2188L124.613 54.1697L132.607 54.2131V46.2188H124.656ZM126.188 43.1875L129.914 50.211L129.97 50.1816L130.025 50.1513L126.188 43.1875ZM136.25 43.2188L132.116 50.0105L132.148 50.0302L132.181 50.0495L136.25 43.2188ZM137.719 47.9375L137.641 55.8882L145.67 55.9667V47.9375H137.719ZM124.938 47.8125L125.015 39.8618L125.004 39.8617L124.938 47.8125ZM113.844 50.0938L118.12 56.797L118.127 56.7923L118.135 56.7876L113.844 50.0938ZM124.094 53.75L121.114 46.3785L121.086 46.3897L121.058 46.4012L124.094 53.75ZM128.844 53.1562L128.927 45.2056L128.886 45.2052H128.844V53.1562ZM137.75 53.25H145.701V45.3822L137.834 45.2994L137.75 53.25ZM124.031 58.8125L119.452 65.3123L119.502 65.3475L119.552 65.3819L124.031 58.8125ZM102.268 56.9688C102.268 62.2791 104.44 67.0518 108.861 70.3266L118.326 57.5484C118.273 57.5088 118.238 57.4785 118.217 57.4591C118.197 57.4399 118.188 57.4297 118.188 57.4292C118.187 57.4289 118.192 57.4347 118.199 57.4459C118.207 57.4572 118.213 57.4691 118.218 57.4796C118.231 57.5048 118.222 57.4959 118.208 57.4298C118.193 57.3601 118.17 57.2131 118.17 56.9688H102.268ZM108.861 70.3266C113.026 73.4114 118.223 74.3885 123.344 74.3885V58.4865C119.964 58.4865 118.662 57.7969 118.326 57.5484L108.861 70.3266ZM123.344 74.3885C127.771 74.3885 132.001 73.8502 135.7 72.408L129.925 57.592C128.707 58.0665 126.625 58.4865 123.344 58.4865V74.3885ZM135.7 72.408C138.72 71.2308 142.059 69.4203 144.305 66.3764L131.508 56.9361C131.732 56.6319 131.843 56.6172 131.566 56.7984C131.295 56.9765 130.781 57.258 129.925 57.592L135.7 72.408ZM129.969 62.1232C130.049 63.4869 130.226 64.9759 130.627 66.4027L145.935 62.0973C145.956 62.1701 145.941 62.1375 145.916 61.9638C145.892 61.7958 145.864 61.5426 145.844 61.1893L129.969 62.1232ZM130.627 66.4027C130.984 67.6731 131.513 68.9735 132.289 70.214L145.774 61.786C145.924 62.0265 145.953 62.1603 145.935 62.0973L130.627 66.4027ZM139.031 73.951H151.656V58.049H139.031V73.951ZM159.607 66V65.5625H143.705V66H159.607ZM158.524 61.5562C158.565 61.6253 158.564 61.6395 158.54 61.5756C158.517 61.511 158.474 61.38 158.429 61.1674L142.884 64.5201C143.247 66.2049 143.838 67.9389 144.788 69.5688L158.524 61.5562ZM158.429 61.1674C158.331 60.713 158.264 60.144 158.264 59.4375H142.361C142.361 61.1477 142.524 62.8495 142.884 64.5201L158.429 61.1674ZM158.264 59.4375V46.7188H142.361V59.4375H158.264ZM158.264 46.7188C158.264 40.5026 155.797 34.8237 150.237 31.2493L141.638 44.6257C141.967 44.8372 142.051 44.9815 142.102 45.0847C142.176 45.2336 142.361 45.6969 142.361 46.7188H158.264ZM150.259 31.2633C145.386 28.1084 138.844 27.174 132.062 27.174V43.076C137.99 43.076 140.697 44.0166 141.616 44.6117L150.259 31.2633ZM132.062 27.174C125.412 27.174 119.187 28.1998 114.176 31.068L122.074 44.8695C123.688 43.946 126.755 43.076 132.062 43.076V27.174ZM114.176 31.068C109.055 33.9988 105.205 38.8205 105.205 45.4688H121.107C121.107 45.408 121.114 45.432 121.092 45.5074C121.069 45.585 121.038 45.6404 121.027 45.6569C121.009 45.6839 121.209 45.3646 122.074 44.8695L114.176 31.068ZM105.205 45.4688V46.1562H121.107V45.4688H105.205ZM113.113 54.1072L124.613 54.1697L124.699 38.2678L113.199 38.2053L113.113 54.1072ZM132.607 46.2188V45.5312H116.705V46.2188H132.607ZM132.607 45.5312C132.607 46.4145 132.364 47.5052 131.695 48.5285C131.06 49.5006 130.311 50.0003 129.914 50.211L122.461 36.164C121.043 36.9163 119.528 38.0775 118.383 39.8309C117.204 41.6354 116.705 43.6272 116.705 45.5312H132.607ZM130.025 50.1513C129.751 50.3022 129.554 50.3708 129.482 50.3935C129.409 50.4169 129.416 50.4086 129.528 50.3893C129.768 50.3477 130.256 50.2948 131.062 50.2948V34.3927C128.509 34.3927 125.196 34.6555 122.35 36.2237L130.025 50.1513ZM131.062 50.2948C132.039 50.2948 132.625 50.3544 132.912 50.4028C133.046 50.4254 133.038 50.4329 132.925 50.3964C132.819 50.3619 132.517 50.2548 132.116 50.0105L140.384 36.427C137.372 34.5933 133.631 34.3927 131.062 34.3927V50.2948ZM132.181 50.0495C131.705 49.766 131.015 49.2113 130.474 48.2795C129.927 47.3359 129.768 46.4111 129.768 45.75H145.67C145.67 41.735 143.61 38.3486 140.319 36.388L132.181 50.0495ZM129.768 45.75V47.9375H145.67V45.75H129.768ZM137.797 39.9868L125.015 39.8618L124.86 55.7632L137.641 55.8882L137.797 39.9868ZM125.004 39.8617C119.477 39.8153 113.921 40.6001 109.553 43.3999L118.135 56.7876C118.642 56.4624 120.481 55.7264 124.871 55.7633L125.004 39.8617ZM109.568 43.3905C104.699 46.4966 102.268 51.4111 102.268 56.9688H118.17C118.17 56.7342 118.193 56.6149 118.2 56.585C118.203 56.57 118.203 56.574 118.196 56.5931C118.189 56.6125 118.177 56.6417 118.158 56.6772C118.139 56.7128 118.118 56.7482 118.094 56.7811C118.07 56.8139 118.049 56.8382 118.035 56.8537C118.004 56.8868 118.018 56.8621 118.12 56.797L109.568 43.3905ZM130.607 56C130.607 56.5999 130.47 57.7105 129.716 58.8901C128.939 60.1058 127.901 60.7799 127.129 61.0988L121.058 46.4012C119.328 47.1159 117.571 48.3629 116.315 50.3286C115.083 52.2582 114.705 54.2959 114.705 56H130.607ZM127.074 61.1215C126.959 61.1677 126.872 61.1966 126.819 61.2129C126.765 61.2294 126.736 61.2361 126.736 61.2361C126.736 61.2362 126.757 61.2312 126.804 61.2232C126.85 61.2153 126.915 61.2052 127.002 61.1943C127.372 61.1481 127.968 61.1073 128.844 61.1073V45.2052C126.493 45.2052 123.599 45.3737 121.114 46.3785L127.074 61.1215ZM128.76 61.1069L137.666 61.2006L137.834 45.2994L128.927 45.2056L128.76 61.1069ZM129.799 53.25V54.3438H145.701V53.25H129.799ZM129.799 54.3438C129.799 53.6768 130.011 52.8236 130.543 52.0674C131.017 51.3922 131.469 51.1883 131.382 51.2321L138.493 65.4554C140.281 64.5617 142.139 63.2224 143.551 61.2139C145.02 59.1243 145.701 56.7399 145.701 54.3438H129.799ZM131.382 51.2321C130.75 51.5482 129.868 51.799 128.562 51.799V67.701C132.007 67.701 135.375 67.0143 138.493 65.4554L131.382 51.2321ZM128.562 51.799C128.23 51.799 127.972 51.7865 127.781 51.7699C127.587 51.7532 127.487 51.7345 127.462 51.7295C127.436 51.7241 127.525 51.7399 127.695 51.8057C127.866 51.8716 128.158 52.003 128.51 52.2431L119.552 65.3819C122.526 67.4094 126.078 67.701 128.562 67.701V51.799ZM128.611 52.3127C129.162 52.7014 129.741 53.3102 130.143 54.1328C130.532 54.9286 130.607 55.6182 130.607 56H114.705C114.705 59.5245 116.194 63.0172 119.452 65.3123L128.611 52.3127ZM155.312 66H147.361V73.951H155.312V66ZM192.469 66V73.951H200.42V66H192.469ZM192.469 58.375H200.42V50.424H192.469V58.375ZM173.031 58.375L168.021 52.2012L150.616 66.326H173.031V58.375ZM191.438 43.4375L196.448 49.6113L199.389 47.2248V43.4375H191.438ZM191.438 36.3438H199.389V28.3927H191.438V36.3438ZM155.812 36.3438V28.3927H147.861V36.3438H155.812ZM155.812 44.3125H147.861V52.2635H155.812V44.3125ZM173.688 44.3125L178.69 50.4924L196.146 36.3615H173.688V44.3125ZM155.312 59.1875L150.31 53.0076L147.361 55.3943V59.1875H155.312ZM155.312 73.951H192.469V58.049H155.312V73.951ZM200.42 66V58.375H184.518V66H200.42ZM192.469 50.424H173.031V66.326H192.469V50.424ZM178.042 64.5488L196.448 49.6113L186.427 37.2637L168.021 52.2012L178.042 64.5488ZM199.389 43.4375V36.3438H183.486V43.4375H199.389ZM191.438 28.3927H155.812V44.2948H191.438V28.3927ZM147.861 36.3438V44.3125H163.764V36.3438H147.861ZM155.812 52.2635H173.688V36.3615H155.812V52.2635ZM168.685 38.1326L150.31 53.0076L160.315 65.3674L178.69 50.4924L168.685 38.1326ZM147.361 59.1875V66H163.264V59.1875H147.361Z" fill="#96D7A0"/>
</g>
<g style="mix-blend-mode:hard-light" filter="url(#filter2_ddi_102_61)">
<path d="M31.5625 76.2188L25.5852 75.1047L24.6888 79.9144L29.1953 81.8192L31.5625 76.2188ZM39.6562 78.625L41.0022 72.6956L40.9887 72.6926L40.9752 72.6896L39.6562 78.625ZM65.5625 75.0938L61.7207 70.3811L61.7144 70.3862L61.7081 70.3914L65.5625 75.0938ZM71.3125 36.3438H77.3927V30.2635H71.3125V36.3438ZM58.9062 36.3438V30.2635H52.826V36.3438H58.9062ZM58.9062 40.5625V46.6427H64.9865V40.5625H58.9062ZM58.7812 40.5625L53.85 44.1195L55.6701 46.6427H58.7812V40.5625ZM54.0312 37.0938L51.435 42.5918L51.4558 42.6016L51.4768 42.6113L54.0312 37.0938ZM33.375 39.5938L29.299 35.0821L29.2912 35.0891L29.2835 35.0962L33.375 39.5938ZM33.625 62.7812L29.6731 67.402L29.6819 67.4095L29.6907 67.417L33.625 62.7812ZM54.1875 65.4375L56.6992 70.9747L56.712 70.9689L56.7247 70.963L54.1875 65.4375ZM59 62H65.0802V45.6273L54.3936 58.0314L59 62ZM55.625 69.8125L52.9058 64.3742L52.8957 64.3793L52.8856 64.3844L55.625 69.8125ZM39.4688 70.125L41.2683 64.3172L41.2554 64.3132L41.2424 64.3092L39.4688 70.125ZM33.1875 67.5L36.6179 62.4799L28.9188 57.2189L27.2102 66.386L33.1875 67.5ZM43.4375 45.9375L47.5616 50.4053L47.58 50.3883L47.5983 50.3711L43.4375 45.9375ZM55.5625 45.0312L53.1764 50.6237L53.2081 50.6372L53.2399 50.6504L55.5625 45.0312ZM58.8438 47.3438H64.924V45.4324L63.8303 43.8648L58.8438 47.3438ZM58.8438 55.125L64.0454 58.2733L64.924 56.8218V55.125H58.8438ZM55.8438 57.4375L58.502 62.9058L58.5175 62.8983L58.533 62.8907L55.8438 57.4375ZM43.5 56.7188L39.5205 61.3158L39.5373 61.3303L39.5543 61.3448L43.5 56.7188ZM29.1953 81.8192C31.69 82.8737 34.7829 83.7706 38.3373 84.5604L40.9752 72.6896C37.7796 71.9794 35.4767 71.2722 33.9297 70.6183L29.1953 81.8192ZM38.3103 84.5544C42.203 85.438 46.3367 85.8615 50.6875 85.8615V73.701C47.1217 73.701 43.9012 73.3537 41.0022 72.6956L38.3103 84.5544ZM50.6875 85.8615C57.8523 85.8615 64.2777 84.0086 69.4169 79.7961L61.7081 70.3914C59.2223 72.4289 55.731 73.701 50.6875 73.701V85.8615ZM69.4043 79.8064C75.067 75.1901 77.3927 68.3848 77.3927 60.6875H65.2323C65.2323 65.9485 63.7247 68.7474 61.7207 70.3811L69.4043 79.8064ZM77.3927 60.6875V36.3438H65.2323V60.6875H77.3927ZM71.3125 30.2635H58.9062V42.424H71.3125V30.2635ZM52.826 36.3438V40.5625H64.9865V36.3438H52.826ZM58.9062 34.4823H58.7812V46.6427H58.9062V34.4823ZM63.7125 37.0055C61.9285 34.5323 59.2842 32.8255 56.5857 31.5762L51.4768 42.6113C52.3293 43.006 52.9234 43.3625 53.3204 43.6525C53.5152 43.7947 53.6478 43.9102 53.7335 43.9934C53.8188 44.0762 53.8504 44.12 53.85 44.1195L63.7125 37.0055ZM56.6275 31.5957C53.3479 30.047 49.6314 29.4198 45.7188 29.4198V41.5802C48.3894 41.5802 50.2146 42.0155 51.435 42.5918L56.6275 31.5957ZM45.7188 29.4198C39.4387 29.4198 33.7224 31.0858 29.299 35.0821L37.451 44.1054C39.0693 42.6434 41.5822 41.5802 45.7188 41.5802V29.4198ZM29.2835 35.0962C24.7974 39.1773 22.7948 44.6712 22.7948 50.8125H34.9552C34.9552 47.4538 35.9526 45.4686 37.4665 44.0913L29.2835 35.0962ZM22.7948 50.8125V51.3125H34.9552V50.8125H22.7948ZM22.7948 51.3125C22.7948 57.6649 24.9027 63.322 29.6731 67.402L37.5769 58.1605C36.014 56.8238 34.9552 54.8351 34.9552 51.3125H22.7948ZM29.6907 67.417C34.1783 71.2256 39.7756 72.8927 45.9375 72.8927V60.7323C42.0161 60.7323 39.405 59.7119 37.5593 58.1455L29.6907 67.417ZM45.9375 72.8927C49.8431 72.8927 53.5685 72.3948 56.6992 70.9747L51.6758 59.9003C50.7648 60.3136 48.9902 60.7323 45.9375 60.7323V72.8927ZM56.7247 70.963C59.3623 69.7519 61.7431 68.1313 63.6064 65.9686L54.3936 58.0314C53.9235 58.577 53.0961 59.2481 51.6503 59.912L56.7247 70.963ZM52.9198 62V64.125H65.0802V62H52.9198ZM52.9198 64.125C52.9198 64.3658 52.8943 64.4898 52.8857 64.5248C52.8785 64.5541 52.8848 64.5158 52.9274 64.444C52.9471 64.4108 52.9696 64.3789 52.9931 64.3504C53.0165 64.3221 53.0358 64.3033 53.0465 64.2937C53.0693 64.2733 53.0374 64.3084 52.9058 64.3742L58.3442 75.2508C60.3613 74.2422 62.1466 72.7368 63.3851 70.6497C64.6112 68.5835 65.0802 66.3212 65.0802 64.125H52.9198ZM52.8856 64.3844C51.5287 65.0691 50.0743 65.4198 48.4375 65.4198V77.5802C51.9257 77.5802 55.2629 76.8059 58.3644 75.2406L52.8856 64.3844ZM48.4375 65.4198C46.0422 65.4198 43.6588 65.0579 41.2683 64.3172L37.6692 75.9328C41.1954 77.0254 44.7912 77.5802 48.4375 77.5802V65.4198ZM41.2424 64.3092C38.4184 63.448 37.0676 62.7872 36.6179 62.4799L29.7571 72.5201C31.8074 73.9211 34.6441 75.0103 37.6951 75.9408L41.2424 64.3092ZM27.2102 66.386L25.5852 75.1047L37.5398 77.3328L39.1648 68.614L27.2102 66.386ZM47.4865 51.5625V50.8438H35.326V51.5625H47.4865ZM47.4865 50.8438C47.4865 50.5191 47.5388 50.4106 47.5318 50.4274C47.5303 50.4312 47.5255 50.4404 47.5206 50.4473C47.5162 50.4535 47.525 50.439 47.5616 50.4053L39.3134 41.4697C36.5842 43.989 35.326 47.3085 35.326 50.8438H47.4865ZM47.5983 50.3711C47.4198 50.5386 47.3899 50.468 47.7912 50.353C48.2088 50.2334 48.9412 50.1115 50.0938 50.1115V37.951C46.4224 37.951 42.3026 38.6642 39.2767 41.5039L47.5983 50.3711ZM50.0938 50.1115C51.5376 50.1115 52.5183 50.3429 53.1764 50.6237L57.9486 39.4388C55.4817 38.3862 52.8165 37.951 50.0938 37.951V50.1115ZM53.2399 50.6504C53.7085 50.844 53.9547 50.9951 54.0521 51.0637C54.1469 51.1306 54.0284 51.0681 53.8572 50.8227L63.8303 43.8648C62.2691 41.627 59.9787 40.2775 57.8851 39.4121L53.2399 50.6504ZM52.7635 47.3438V55.125H64.924V47.3438H52.7635ZM53.6421 51.9767C53.7796 51.7495 53.9049 51.6049 53.9712 51.5348C54.0375 51.4649 54.0635 51.4496 54.0224 51.4813C53.9822 51.5123 53.8948 51.5751 53.7458 51.665C53.5978 51.7543 53.4033 51.8617 53.1545 51.9843L58.533 62.8907C60.3511 61.9941 62.6465 60.5845 64.0454 58.2733L53.6421 51.9767ZM53.1855 51.9692C52.7885 52.1622 51.8492 52.451 50.0312 52.451V64.6115C52.9633 64.6115 55.899 64.1712 58.502 62.9058L53.1855 51.9692ZM50.0312 52.451C48.9571 52.451 48.2493 52.3381 47.8212 52.2193C47.4077 52.1046 47.3516 52.0124 47.4457 52.0927L39.5543 61.3448C42.5519 63.9016 46.4381 64.6115 50.0312 64.6115V52.451ZM47.4795 52.1217C47.4837 52.1254 47.5048 52.1452 47.5293 52.1794C47.5537 52.2135 47.5637 52.2371 47.5632 52.2359C47.5623 52.2337 47.4865 52.0474 47.4865 51.5625H35.326C35.326 55.1559 36.515 58.714 39.5205 61.3158L47.4795 52.1217ZM78.9688 66H72.8885V72.0802H78.9688V66ZM91.9375 66V72.0802H98.0177V66H91.9375ZM91.9375 51.5625L86.6305 48.5952L85.8573 49.9781V51.5625H91.9375ZM96.8125 46.75L99.8887 51.9946L99.9074 51.9837L99.926 51.9726L96.8125 46.75ZM107.25 45.0938L105.946 51.0326L106.016 51.0478L106.086 51.0614L107.25 45.0938ZM109.438 45.8125L106.644 51.213L115.518 55.8028V45.8125H109.438ZM109.438 36.0938H115.518V32.0403L111.776 30.4813L109.438 36.0938ZM107.438 35.5L105.963 41.3987L106.033 41.4161L106.103 41.4319L107.438 35.5ZM91.8438 42.75V48.8302H95.6375L97.3051 45.4226L91.8438 42.75ZM91.7188 42.75L85.6386 42.7797L85.6681 48.8302H91.7188V42.75ZM91.6875 36.3438L97.7676 36.3141L97.7381 30.2635H91.6875V36.3438ZM78.9688 36.3438V30.2635H72.8885V36.3438H78.9688ZM78.9688 72.0802H91.9375V59.9198H78.9688V72.0802ZM98.0177 66V51.5625H85.8573V66H98.0177ZM97.2445 54.5298C97.7334 53.6555 98.5297 52.7917 99.8887 51.9946L93.7363 41.5054C90.762 43.2499 88.3083 45.5945 86.6305 48.5952L97.2445 54.5298ZM99.926 51.9726C101.152 51.2418 102.42 50.8927 103.844 50.8927V38.7323C100.226 38.7323 96.8066 39.6748 93.699 41.5274L99.926 51.9726ZM103.844 50.8927C105.056 50.8927 105.701 50.9786 105.946 51.0326L108.554 39.1549C107.091 38.8339 105.465 38.7323 103.844 38.7323V50.8927ZM106.086 51.0614C106.522 51.1467 106.673 51.2281 106.644 51.213L112.231 40.412C110.994 39.7719 109.686 39.3742 108.414 39.1261L106.086 51.0614ZM115.518 45.8125V36.0938H103.357V45.8125H115.518ZM111.776 30.4813C110.821 30.0835 109.777 29.7942 108.772 29.5681L106.103 41.4319C106.415 41.5022 106.655 41.5652 106.832 41.6178C106.919 41.6438 106.985 41.6653 107.032 41.6815C107.079 41.6979 107.1 41.7066 107.099 41.7062L111.776 30.4813ZM108.912 29.6013C107.368 29.2152 105.624 29.1073 103.938 29.1073V41.2677C105.251 41.2677 105.841 41.3681 105.963 41.3987L108.912 29.6013ZM103.938 29.1073C100.024 29.1073 96.3856 30.2729 93.1665 32.4992L100.083 42.5008C101.323 41.6437 102.559 41.2677 103.938 41.2677V29.1073ZM93.1665 32.4992C90.2869 34.4907 87.8966 36.9831 86.3824 40.0774L97.3051 45.4226C97.7075 44.6002 98.5047 43.5926 100.083 42.5008L93.1665 32.4992ZM91.8438 36.6698H91.7188V48.8302H91.8438V36.6698ZM97.7989 42.7203L97.7676 36.3141L85.6074 36.3734L85.6386 42.7797L97.7989 42.7203ZM91.6875 30.2635H78.9688V42.424H91.6875V30.2635ZM72.8885 36.3438V66H85.049V36.3438H72.8885ZM137.906 61.6562L143.976 61.2992L142.989 44.524L133.013 58.0467L137.906 61.6562ZM139.031 66L133.875 69.2225L135.661 72.0802H139.031V66ZM151.656 66V72.0802H157.736V66H151.656ZM151.656 65.5625H157.736V63.9187L156.908 62.4989L151.656 65.5625ZM145.938 37.9375L142.633 43.0413L142.641 43.0467L142.65 43.052L145.938 37.9375ZM113.156 46.1562H107.076V52.2035L113.123 52.2364L113.156 46.1562ZM124.656 46.2188L124.623 52.2989L130.736 52.3321V46.2188H124.656ZM126.188 43.1875L129.037 48.5584L129.08 48.5359L129.122 48.5128L126.188 43.1875ZM136.25 43.2188L133.089 48.4125L133.113 48.4275L133.138 48.4423L136.25 43.2188ZM137.719 47.9375L137.659 54.0174L143.799 54.0775V47.9375H137.719ZM124.938 47.8125L124.997 41.7326L124.989 41.7325L124.938 47.8125ZM113.844 50.0938L117.114 55.2198L117.125 55.2126L113.844 50.0938ZM124.094 53.75L121.815 48.113L121.794 48.1216L121.773 48.1303L124.094 53.75ZM128.844 53.1562L128.908 47.0764L128.876 47.076H128.844V53.1562ZM137.75 53.25H143.83V47.2335L137.814 47.1701L137.75 53.25ZM124.031 58.8125L120.529 63.783L120.567 63.8098L120.606 63.8361L124.031 58.8125ZM104.139 56.9688C104.139 61.7306 106.064 65.9269 109.975 68.8233L117.213 59.0517C116.623 58.6148 116.299 58.1653 116.299 56.9688H104.139ZM109.975 68.8233C113.689 71.5744 118.428 72.5177 123.344 72.5177V60.3573C119.759 60.3573 117.999 59.6339 117.213 59.0517L109.975 68.8233ZM123.344 72.5177C127.636 72.5177 131.614 71.9933 135.021 70.665L130.604 59.335C129.095 59.9234 126.76 60.3573 123.344 60.3573V72.5177ZM135.021 70.665C137.909 69.5392 140.861 67.8924 142.799 65.2658L133.013 58.0467C133.075 57.9636 133.004 58.0927 132.593 58.3624C132.186 58.6297 131.548 58.9669 130.604 59.335L135.021 70.665ZM131.837 62.0133C131.913 63.3061 132.077 64.6483 132.428 65.8962L144.134 62.6038C144.11 62.5184 144.025 62.1314 143.976 61.2992L131.837 62.0133ZM132.428 65.8962C132.745 67.0245 133.209 68.1562 133.875 69.2225L144.187 62.7775C144.229 62.8438 144.192 62.8088 144.134 62.6038L132.428 65.8962ZM139.031 72.0802H151.656V59.9198H139.031V72.0802ZM157.736 66V65.5625H145.576V66H157.736ZM156.908 62.4989C156.863 62.4217 156.726 62.1484 156.6 61.5618L144.713 64.1257C145.045 65.6641 145.574 67.2033 146.404 68.6261L156.908 62.4989ZM156.6 61.5618C156.471 60.9643 156.393 60.2621 156.393 59.4375H144.232C144.232 61.0296 144.383 62.5982 144.713 64.1257L156.6 61.5618ZM156.393 59.4375V46.7188H144.232V59.4375H156.393ZM156.393 46.7188C156.393 41.029 154.164 35.9976 149.225 32.823L142.65 43.052C143.545 43.6274 144.232 44.4502 144.232 46.7188H156.393ZM149.242 32.8337C144.835 29.98 138.743 29.0448 132.062 29.0448V41.2052C138.09 41.2052 141.249 42.145 142.633 43.0413L149.242 32.8337ZM132.062 29.0448C125.57 29.0448 119.716 30.0523 115.105 32.6917L121.145 43.2458C123.159 42.0935 126.597 41.2052 132.062 41.2052V29.0448ZM115.105 32.6917C110.409 35.379 107.076 39.6544 107.076 45.4688H119.236C119.236 45.0748 119.216 44.3502 121.145 43.2458L115.105 32.6917ZM107.076 45.4688V46.1562H119.236V45.4688H107.076ZM113.123 52.2364L124.623 52.2989L124.689 40.1386L113.189 40.0761L113.123 52.2364ZM130.736 46.2188V45.5312H118.576V46.2188H130.736ZM130.736 45.5312C130.736 46.0865 130.58 46.8146 130.129 47.5052C129.704 48.1567 129.221 48.461 129.037 48.5584L123.338 37.8166C122.133 38.4556 120.885 39.4214 119.949 40.8541C118.987 42.326 118.576 43.9551 118.576 45.5312H130.736ZM129.122 48.5128C128.852 48.6617 128.808 48.6152 129.209 48.5458C129.584 48.481 130.183 48.424 131.062 48.424V36.2635C128.585 36.2635 125.67 36.5307 123.253 37.8622L129.122 48.5128ZM131.062 48.424C132.104 48.424 132.8 48.4867 133.223 48.558C133.427 48.5925 133.511 48.6197 133.504 48.6174C133.503 48.6168 133.339 48.565 133.089 48.4125L139.411 38.025C136.882 36.4856 133.615 36.2635 131.062 36.2635V48.424ZM133.138 48.4423C132.889 48.2941 132.448 47.9539 132.093 47.3406C131.731 46.7183 131.639 46.1256 131.639 45.75H143.799C143.799 42.4199 142.109 39.6318 139.362 37.9952L133.138 48.4423ZM131.639 45.75V47.9375H143.799V45.75H131.639ZM137.778 41.8576L124.997 41.7326L124.878 53.8924L137.659 54.0174L137.778 41.8576ZM124.989 41.7325C119.595 41.6872 114.476 42.4662 110.562 44.9749L117.125 55.2126C118.086 54.5963 120.363 53.8545 124.886 53.8925L124.989 41.7325ZM110.574 44.9678C106.282 47.7057 104.139 52.0031 104.139 56.9688H116.299C116.299 56.2641 116.434 55.9358 116.503 55.8046C116.564 55.6889 116.698 55.485 117.114 55.2197L110.574 44.9678ZM128.736 56C128.736 56.3289 128.659 57.0691 128.139 57.8829C127.602 58.7243 126.893 59.1724 126.415 59.3697L121.773 48.1303C120.337 48.7234 118.909 49.7444 117.892 51.3359C116.893 52.8997 116.576 54.567 116.576 56H128.736ZM126.373 59.387C126.192 59.4599 126.264 59.4012 126.77 59.3379C127.239 59.2793 127.917 59.2365 128.844 59.2365V47.076C126.532 47.076 123.946 47.2514 121.815 48.113L126.373 59.387ZM128.78 59.2361L137.686 59.3299L137.814 47.1701L128.908 47.0764L128.78 59.2361ZM131.67 53.25V54.3438H143.83V53.25H131.67ZM131.67 54.3438C131.67 54.2208 131.687 54.0247 131.76 53.7866C131.834 53.5453 131.945 53.3252 132.073 53.1434C132.326 52.784 132.506 52.7616 132.218 52.9054L137.657 63.7821C139.244 62.9884 140.83 61.8306 142.021 60.1378C143.254 58.3831 143.83 56.3795 143.83 54.3438H131.67ZM132.218 52.9054C131.294 53.3677 130.12 53.6698 128.562 53.6698V65.8302C131.755 65.8302 134.831 65.1948 137.657 63.7821L132.218 52.9054ZM128.562 53.6698C127.786 53.6698 127.317 53.6099 127.083 53.5615C126.828 53.5087 127.048 53.5102 127.456 53.7889L120.606 63.8361C123.096 65.5336 126.167 65.8302 128.562 65.8302V53.6698ZM127.533 53.842C127.847 54.0633 128.209 54.4358 128.462 54.9545C128.706 55.4528 128.736 55.8526 128.736 56H116.576C116.576 58.9844 117.823 61.8759 120.529 63.783L127.533 53.842ZM155.312 66H149.232V72.0802H155.312V66ZM192.469 66V72.0802H198.549V66H192.469ZM192.469 58.375H198.549V52.2948H192.469V58.375ZM173.031 58.375L169.2 53.6539L155.89 64.4552H173.031V58.375ZM191.438 43.4375L195.269 48.1586L197.518 46.3336V43.4375H191.438ZM191.438 36.3438H197.518V30.2635H191.438V36.3438ZM155.812 36.3438V30.2635H149.732V36.3438H155.812ZM155.812 44.3125H149.732V50.3927H155.812V44.3125ZM173.688 44.3125L177.513 49.0383L190.862 38.2323H173.688V44.3125ZM155.312 59.1875L151.487 54.4617L149.232 56.2868V59.1875H155.312ZM155.312 72.0802H192.469V59.9198H155.312V72.0802ZM198.549 66V58.375H186.389V66H198.549ZM192.469 52.2948H173.031V64.4552H192.469V52.2948ZM176.863 63.0961L195.269 48.1586L187.606 38.7164L169.2 53.6539L176.863 63.0961ZM197.518 43.4375V36.3438H185.357V43.4375H197.518ZM191.438 30.2635H155.812V42.424H191.438V30.2635ZM149.732 36.3438V44.3125H161.893V36.3438H149.732ZM155.812 50.3927H173.688V38.2323H155.812V50.3927ZM169.862 39.5867L151.487 54.4617L159.138 63.9133L177.513 49.0383L169.862 39.5867ZM149.232 59.1875V66H161.393V59.1875H149.232Z" fill="#61E476" fill-opacity="0.2"/>
</g>
<g filter="url(#filter3_f_102_61)">
<path d="M31.5625 76.2188L27.8842 75.5332L27.3325 78.493L30.1058 79.6652L31.5625 76.2188ZM39.6562 78.625L40.4845 74.9762L40.4762 74.9743L40.4679 74.9724L39.6562 78.625ZM65.5625 75.0938L63.1983 72.1936L63.1906 72.2L65.5625 75.0938ZM71.3125 36.3438H75.0542V32.6021H71.3125V36.3438ZM58.9062 36.3438V32.6021H55.1646V36.3438H58.9062ZM58.9062 40.5625V44.3042H62.6479V40.5625H58.9062ZM58.7812 40.5625L55.7466 42.7514L56.8667 44.3042H58.7812V40.5625ZM54.0312 37.0938L52.4335 40.4771L52.4464 40.4832L52.4593 40.4892L54.0312 37.0938ZM33.375 39.5938L30.8667 36.8173L30.8571 36.826L33.375 39.5938ZM33.625 62.7812L31.193 65.6248L31.1985 65.6294L31.2039 65.634L33.625 62.7812ZM54.1875 65.4375L55.7332 68.845L55.741 68.8414L55.7489 68.8378L54.1875 65.4375ZM59 62H62.7417V51.9245L56.1653 59.5578L59 62ZM55.625 69.8125L53.9517 66.4658L53.9392 66.4721L55.625 69.8125ZM39.4688 70.125L40.5762 66.551L40.5682 66.5485L40.5602 66.5461L39.4688 70.125ZM33.1875 67.5L35.2985 64.4107L30.5606 61.1731L29.5092 66.8144L33.1875 67.5ZM43.4375 45.9375L45.9754 48.6869L45.9867 48.6764L45.998 48.6659L43.4375 45.9375ZM55.5625 45.0312L54.0941 48.4728L54.1136 48.4811L54.1332 48.4892L55.5625 45.0312ZM58.8438 47.3438H62.5854V46.1675L61.9124 45.2028L58.8438 47.3438ZM58.8438 55.125L62.0447 57.0624L62.5854 56.1692V55.125H58.8438ZM55.8438 57.4375L57.4796 60.8026L57.4891 60.798L57.4987 60.7933L55.8438 57.4375ZM43.5 56.7188L41.0511 59.5477L41.0614 59.5566L41.0719 59.5655L43.5 56.7188ZM30.1058 79.6652C32.4182 80.6426 35.3592 81.503 38.8446 82.2776L40.4679 74.9724C37.2033 74.247 34.7485 73.5032 33.0192 72.7723L30.1058 79.6652ZM38.828 82.2738C42.5296 83.1141 46.4876 83.5229 50.6875 83.5229V76.0396C46.9707 76.0396 43.5746 75.6776 40.4845 74.9762L38.828 82.2738ZM50.6875 83.5229C57.4444 83.5229 63.3055 81.7817 67.9344 77.9875L63.1906 72.2C60.1945 74.6558 56.139 76.0396 50.6875 76.0396V83.5229ZM67.9267 77.9938C72.8858 73.9511 75.0542 67.9163 75.0542 60.6875H67.5708C67.5708 66.417 65.9059 69.9864 63.1983 72.1937L67.9267 77.9938ZM75.0542 60.6875V36.3438H67.5708V60.6875H75.0542ZM71.3125 32.6021H58.9062V40.0854H71.3125V32.6021ZM55.1646 36.3438V40.5625H62.6479V36.3438H55.1646ZM58.9062 36.8208H58.7812V44.3042H58.9062V36.8208ZM61.8159 38.3736C60.3655 36.3628 58.1292 34.8678 55.6032 33.6983L52.4593 40.4892C54.4333 41.4031 55.3637 42.2205 55.7466 42.7514L61.8159 38.3736ZM55.629 33.7104C52.7454 32.3486 49.3926 31.7583 45.7188 31.7583V39.2417C48.6283 39.2417 50.8171 39.7139 52.4335 40.4771L55.629 33.7104ZM45.7188 31.7583C39.8509 31.7583 34.7506 33.3084 30.8667 36.8174L35.8833 42.3701C38.041 40.4208 41.17 39.2417 45.7188 39.2417V31.7583ZM30.8571 36.826C26.9426 40.3871 25.1333 45.2063 25.1333 50.8125H32.6167C32.6167 46.9187 33.8074 44.2587 35.8929 42.3615L30.8571 36.826ZM25.1333 50.8125V51.3125H32.6167V50.8125H25.1333ZM25.1333 51.3125C25.1333 57.1207 27.0395 62.0724 31.193 65.6248L36.057 59.9377C33.8772 58.0735 32.6167 55.3793 32.6167 51.3125H25.1333ZM31.2039 65.634C35.1834 69.0114 40.2064 70.5542 45.9375 70.5542V63.0708C41.5852 63.0708 38.3999 61.9261 36.0461 59.9285L31.2039 65.634ZM45.9375 70.5542C49.6791 70.5542 53.0293 70.0715 55.7332 68.845L52.6418 62.03C51.304 62.6369 49.1542 63.0708 45.9375 63.0708V70.5542ZM55.7489 68.8378C58.1572 67.7319 60.2394 66.294 61.8347 64.4422L56.1653 59.5578C55.4273 60.4144 54.3011 61.2681 52.6261 62.0372L55.7489 68.8378ZM55.2583 62V64.125H62.7417V62H55.2583ZM55.2583 64.125C55.2583 64.9274 55.0926 65.3777 54.9385 65.6374C54.792 65.8843 54.5277 66.1779 53.9517 66.4659L57.2983 73.1591C58.9723 72.3221 60.3955 71.1053 61.374 69.4563C62.3449 67.8202 62.7417 65.9893 62.7417 64.125H55.2583ZM53.9392 66.4721C52.2468 67.3262 50.4303 67.7583 48.4375 67.7583V75.2417C51.5697 75.2417 54.5448 74.5488 57.3108 73.1529L53.9392 66.4721ZM48.4375 67.7583C45.8016 67.7583 43.185 67.3594 40.5762 66.551L38.3613 73.699C41.6691 74.724 45.0317 75.2417 48.4375 75.2417V67.7583ZM40.5602 66.5461C37.6926 65.6715 36.056 64.9283 35.2985 64.4107L31.0765 70.5893C32.819 71.78 35.3699 72.7868 38.3773 73.7039L40.5602 66.5461ZM29.5092 66.8144L27.8842 75.5332L35.2408 76.9043L36.8658 68.1856L29.5092 66.8144ZM45.1479 51.5625V50.8438H37.6646V51.5625H45.1479ZM45.1479 50.8438C45.1479 49.7549 45.4674 49.1558 45.9754 48.6869L40.8996 43.1881C38.6993 45.2192 37.6646 47.8909 37.6646 50.8438H45.1479ZM45.998 48.6659C46.3234 48.3605 47.3723 47.7729 50.0938 47.7729V40.2896C46.6486 40.2896 43.2599 40.9728 40.877 43.2091L45.998 48.6659ZM50.0938 47.7729C51.7836 47.7729 53.0882 48.0436 54.0941 48.4728L57.0309 41.5897C54.9118 40.6856 52.5706 40.2896 50.0938 40.2896V47.7729ZM54.1332 48.4892C55.3689 48.9999 55.7262 49.4146 55.7751 49.4847L61.9124 45.2028C60.7113 43.4812 58.8811 42.3543 56.9918 41.5733L54.1332 48.4892ZM55.1021 47.3438V55.125H62.5854V47.3438H55.1021ZM55.6428 53.1876C55.7126 53.0722 55.7085 53.1342 55.4501 53.3334C55.2 53.5262 54.7973 53.7816 54.1888 54.0817L57.4987 60.7933C59.2024 59.9531 60.9996 58.7892 62.0447 57.0624L55.6428 53.1876ZM54.2079 54.0724C53.3867 54.4716 52.0634 54.7896 50.0312 54.7896V62.2729C52.7491 62.2729 55.3008 61.8618 57.4796 60.8026L54.2079 54.0724ZM50.0312 54.7896C47.4972 54.7896 46.3719 54.2505 45.9281 53.872L41.0719 59.5655C43.4614 61.6037 46.6903 62.2729 50.0312 62.2729V54.7896ZM45.9489 53.8898C45.5437 53.539 45.1479 52.9522 45.1479 51.5625H37.6646C37.6646 54.6312 38.6647 57.4818 41.0511 59.5477L45.9489 53.8898ZM78.9688 66H75.2271V69.7417H78.9688V66ZM91.9375 66V69.7417H95.6792V66H91.9375ZM91.9375 51.5625L88.6717 49.7364L88.1958 50.5875V51.5625H91.9375ZM96.8125 46.75L98.7055 49.9775L98.717 49.9707L98.7285 49.9639L96.8125 46.75ZM107.25 45.0938L106.448 48.7484L106.49 48.7578L106.533 48.7662L107.25 45.0938ZM109.438 45.8125L107.718 49.1359L113.179 51.9604V45.8125H109.438ZM109.438 36.0938H113.179V33.5993L110.877 32.6399L109.438 36.0938ZM107.438 35.5L106.53 39.1299L106.573 39.1407L106.616 39.1504L107.438 35.5ZM91.8438 42.75V46.4917H94.1784L95.2046 44.3947L91.8438 42.75ZM91.7188 42.75L87.9771 42.7683L87.9953 46.4917H91.7188V42.75ZM91.6875 36.3438L95.4291 36.3255L95.411 32.6021H91.6875V36.3438ZM78.9688 36.3438V32.6021H75.2271V36.3438H78.9688ZM78.9688 69.7417H91.9375V62.2583H78.9688V69.7417ZM95.6792 66V51.5625H88.1958V66H95.6792ZM95.2033 53.3886C95.9208 52.1053 97.0359 50.9568 98.7055 49.9775L94.9195 43.5225C92.2558 45.0849 90.1208 47.1447 88.6717 49.7364L95.2033 53.3886ZM98.7285 49.9639C100.316 49.0174 101.998 48.5542 103.844 48.5542V41.0708C100.648 41.0708 97.6422 41.8993 94.8965 43.5361L98.7285 49.9639ZM103.844 48.5542C105.135 48.5542 105.968 48.6431 106.448 48.7484L108.052 41.4391C106.824 41.1694 105.386 41.0708 103.844 41.0708V48.5542ZM106.533 48.7662C107.131 48.8827 107.504 49.025 107.718 49.1359L111.157 42.4891C110.163 41.975 109.078 41.6381 107.967 41.4213L106.533 48.7662ZM113.179 45.8125V36.0938H105.696V45.8125H113.179ZM110.877 32.6399C110.097 32.315 109.198 32.0608 108.259 31.8496L106.616 39.1504C107.344 39.3142 107.778 39.4558 107.998 39.5476L110.877 32.6399ZM108.345 31.8701C107.074 31.5523 105.553 31.4458 103.938 31.4458V38.9292C105.322 38.9292 106.134 39.031 106.53 39.1299L108.345 31.8701ZM103.938 31.4458C100.512 31.4458 97.3351 32.4596 94.4967 34.4226L98.7533 40.5774C100.373 39.457 102.072 38.9292 103.938 38.9292V31.4458ZM94.4967 34.4226C91.8673 36.2411 89.7833 38.4479 88.4829 41.1053L95.2046 44.3947C95.8208 43.1354 96.9244 41.8423 98.7533 40.5774L94.4967 34.4226ZM91.8438 39.0083H91.7188V46.4917H91.8438V39.0083ZM95.4604 42.7317L95.4291 36.3255L87.9459 36.362L87.9771 42.7683L95.4604 42.7317ZM91.6875 32.6021H78.9688V40.0854H91.6875V32.6021ZM75.2271 36.3438V66H82.7104V36.3438H75.2271ZM137.906 61.6562L141.641 61.4365L141.034 51.1133L134.895 59.435L137.906 61.6562ZM139.031 66L135.858 67.9831L136.957 69.7417H139.031V66ZM151.656 66V69.7417H155.398V66H151.656ZM151.656 65.5625H155.398V64.5509L154.888 63.6772L151.656 65.5625ZM145.938 37.9375L143.904 41.0783L143.914 41.0849L145.938 37.9375ZM113.156 46.1562H109.415V49.8776L113.136 49.8979L113.156 46.1562ZM124.656 46.2188L124.636 49.9604L128.398 49.9808V46.2188H124.656ZM126.188 43.1875L127.941 46.4927L127.967 46.4789L127.993 46.4646L126.188 43.1875ZM136.25 43.2188L134.305 46.4149L134.32 46.4241L134.335 46.4332L136.25 43.2188ZM137.719 47.9375L137.682 51.679L141.46 51.7159V47.9375H137.719ZM124.938 47.8125L124.974 44.071L124.969 44.071L124.938 47.8125ZM113.844 50.0938L115.856 53.2482L115.863 53.2438L113.844 50.0938ZM124.094 53.75L122.691 50.2811L122.678 50.2863L122.665 50.2917L124.094 53.75ZM128.844 53.1562L128.883 49.4148L128.863 49.4146H128.844V53.1562ZM137.75 53.25H141.492V49.5475L137.789 49.5085L137.75 53.25ZM124.031 58.8125L121.876 61.8712L121.9 61.8878L121.923 61.904L124.031 58.8125ZM106.477 56.9688C106.477 61.0449 108.095 64.5207 111.367 66.9441L115.821 60.9309C114.593 60.021 113.96 58.8509 113.96 56.9688H106.477ZM111.367 66.9441C114.518 69.2782 118.684 70.1792 123.344 70.1792V62.6958C119.503 62.6958 117.17 61.9302 115.821 60.9309L111.367 66.9441ZM123.344 70.1792C127.468 70.1792 131.129 69.6721 134.172 68.4861L131.453 61.5139C129.579 62.2445 126.928 62.6958 123.344 62.6958V70.1792ZM134.172 68.4861C136.894 67.4248 139.364 65.9827 140.917 63.8775L134.895 59.435C134.573 59.8715 133.648 60.6586 131.453 61.5139L134.172 68.4861ZM134.171 61.876C134.242 63.0802 134.391 64.2387 134.679 65.263L141.883 63.237C141.796 62.928 141.696 62.3573 141.641 61.4365L134.171 61.876ZM134.679 65.263C134.947 66.2138 135.328 67.1346 135.858 67.9831L142.204 64.0169C142.109 63.8654 141.991 63.6195 141.883 63.237L134.679 65.263ZM139.031 69.7417H151.656V62.2583H139.031V69.7417ZM155.398 66V65.5625H147.915V66H155.398ZM154.888 63.6772C154.692 63.3412 154.48 62.8245 154.314 62.0549L146.999 63.6326C147.291 64.988 147.745 66.2838 148.424 67.4478L154.888 63.6772ZM154.314 62.0549C154.146 61.2785 154.054 60.4097 154.054 59.4375H146.571C146.571 60.882 146.708 62.284 146.999 63.6326L154.314 62.0549ZM154.054 59.4375V46.7188H146.571V59.4375H154.054ZM154.054 46.7188C154.054 41.6869 152.122 37.4649 147.961 34.7901L143.914 41.0849C145.587 42.1601 146.571 43.7923 146.571 46.7188H154.054ZM147.971 34.7967C144.145 32.3194 138.618 31.3833 132.062 31.3833V38.8667C138.216 38.8667 141.938 39.8056 143.904 41.0783L147.971 34.7967ZM132.062 31.3833C125.767 31.3833 120.378 32.3679 116.266 34.7213L119.984 41.2162C122.497 39.7779 126.399 38.8667 132.062 38.8667V31.3833ZM116.266 34.7213C112.103 37.1042 109.415 40.6968 109.415 45.4688H116.898C116.898 44.0324 117.522 42.625 119.984 41.2162L116.266 34.7213ZM109.415 45.4688V46.1562H116.898V45.4688H109.415ZM113.136 49.8979L124.636 49.9604L124.677 42.4771L113.177 42.4146L113.136 49.8979ZM128.398 46.2188V45.5312H120.915V46.2188H128.398ZM128.398 45.5312C128.398 45.6767 128.351 45.9514 128.171 46.2262C128.008 46.4768 127.858 46.5369 127.941 46.4927L124.434 39.8823C123.496 40.3797 122.581 41.1013 121.907 42.1332C121.217 43.1892 120.915 44.365 120.915 45.5312H128.398ZM127.993 46.4646C128.155 46.3754 128.986 46.0854 131.062 46.0854V38.6021C128.68 38.6021 126.261 38.8746 124.382 39.9104L127.993 46.4646ZM131.062 46.0854C132.184 46.0854 133.019 46.1521 133.612 46.252C134.243 46.3584 134.394 46.4693 134.305 46.4149L138.195 40.0226C136.27 38.8509 133.595 38.6021 131.062 38.6021V46.0854ZM134.335 46.4332C134.37 46.4542 134.24 46.3821 134.115 46.1669C133.987 45.9462 133.977 45.7688 133.977 45.75H141.46C141.46 43.276 140.232 41.2357 138.165 40.0043L134.335 46.4332ZM133.977 45.75V47.9375H141.46V45.75H133.977ZM137.755 44.196L124.974 44.071L124.901 51.554L137.682 51.679L137.755 44.196ZM124.969 44.071C119.743 44.027 115.17 44.7989 111.824 46.9437L115.863 53.2438C117.392 52.2636 120.215 51.5146 124.906 51.554L124.969 44.071ZM111.831 46.9393C108.261 49.2172 106.477 52.7431 106.477 56.9688H113.96C113.96 55.1111 114.593 54.0537 115.856 53.2482L111.831 46.9393ZM126.398 56C126.398 55.99 126.397 56.2673 126.169 56.6238C125.93 56.9974 125.632 57.163 125.522 57.2083L122.665 50.2917C121.597 50.7329 120.58 51.4713 119.863 52.5949C119.156 53.7015 118.915 54.9058 118.915 56H126.398ZM125.496 57.2189C125.766 57.1097 126.733 56.8979 128.844 56.8979V49.4146C126.58 49.4146 124.38 49.5986 122.691 50.2811L125.496 57.2189ZM128.804 56.8977L137.711 56.9915L137.789 49.5085L128.883 49.4148L128.804 56.8977ZM134.008 53.25V54.3438H141.492V53.25H134.008ZM134.008 54.3438C134.008 54.4344 133.997 54.4704 133.996 54.4712C133.996 54.4719 133.996 54.4724 133.996 54.4726C133.996 54.4729 133.996 54.473 133.996 54.473C133.996 54.473 133.996 54.473 133.996 54.473C133.996 54.473 133.996 54.473 133.996 54.473C133.996 54.473 133.996 54.473 133.996 54.473C133.996 54.4731 133.996 54.4731 133.996 54.4732C133.996 54.4732 133.993 54.4781 133.986 54.4885C133.961 54.5237 133.802 54.7283 133.264 54.9971L136.611 61.6904C137.948 61.0217 139.195 60.0909 140.108 58.7927C141.047 57.4565 141.492 55.9291 141.492 54.3438H134.008ZM133.264 54.9971C131.974 55.6422 130.434 56.0083 128.562 56.0083V63.4917C131.441 63.4917 134.151 62.9203 136.611 61.6904L133.264 54.9971ZM128.562 56.0083C127.68 56.0083 127.044 55.9414 126.61 55.8516C126.162 55.7589 126.064 55.6697 126.139 55.721L121.923 61.904C123.808 63.189 126.279 63.4917 128.562 63.4917V56.0083ZM126.186 55.7538C126.186 55.7536 126.193 55.7587 126.206 55.7701C126.219 55.7815 126.236 55.7981 126.255 55.8201C126.295 55.8665 126.333 55.9224 126.361 55.9816C126.423 56.108 126.398 56.1457 126.398 56H118.915C118.915 58.3093 119.858 60.4493 121.876 61.8712L126.186 55.7538ZM155.312 66H151.571V69.7417H155.312V66ZM192.469 66V69.7417H196.21V66H192.469ZM192.469 58.375H196.21V54.6333H192.469V58.375ZM173.031 58.375L170.673 55.4697L162.483 62.1167H173.031V58.375ZM191.438 43.4375L193.795 46.3428L195.179 45.2197V43.4375H191.438ZM191.438 36.3438H195.179V32.6021H191.438V36.3438ZM155.812 36.3438V32.6021H152.071V36.3438H155.812ZM155.812 44.3125H152.071V48.0542H155.812V44.3125ZM173.688 44.3125L176.042 47.2207L184.256 40.5708H173.688V44.3125ZM155.312 59.1875L152.958 56.2793L151.571 57.4025V59.1875H155.312ZM155.312 69.7417H192.469V62.2583H155.312V69.7417ZM196.21 66V58.375H188.727V66H196.21ZM192.469 54.6333H173.031V62.1167H192.469V54.6333ZM175.389 61.2803L193.795 46.3428L189.08 40.5322L170.673 55.4697L175.389 61.2803ZM195.179 43.4375V36.3438H187.696V43.4375H195.179ZM191.438 32.6021H155.812V40.0854H191.438V32.6021ZM152.071 36.3438V44.3125H159.554V36.3438H152.071ZM155.812 48.0542H173.688V40.5708H155.812V48.0542ZM171.333 41.4043L152.958 56.2793L157.667 62.0957L176.042 47.2207L171.333 41.4043ZM151.571 59.1875V66H159.054V59.1875H151.571Z" fill="#35EE51"/>
</g>
<g filter="url(#filter4_f_102_61)">
<path d="M31.5625 76.2188L29.7233 75.876L29.4475 77.3559L30.8341 77.942L31.5625 76.2188ZM39.6562 78.625L40.0704 76.8006L40.0621 76.7987L39.6562 78.625ZM65.5625 75.0938L64.3804 73.6437L64.3765 73.6469L65.5625 75.0938ZM71.3125 36.3438H73.1833V34.4729H71.3125V36.3438ZM58.9062 36.3438V34.4729H57.0354V36.3438H58.9062ZM58.9062 40.5625V42.4333H60.7771V40.5625H58.9062ZM58.7812 40.5625L57.2639 41.6569L57.824 42.4333H58.7812V40.5625ZM54.0312 37.0938L53.2324 38.7854L53.2388 38.7885L53.2453 38.7915L54.0312 37.0938ZM33.375 39.5938L32.1208 38.2055L32.1161 38.2099L33.375 39.5938ZM33.625 62.7812L32.409 64.203L32.4144 64.2076L33.625 62.7812ZM54.1875 65.4375L54.9603 67.1413L54.9682 67.1377L54.1875 65.4375ZM59 62H60.8708V56.9622L57.5826 60.7789L59 62ZM55.625 69.8125L54.7883 68.1392L54.7821 68.1423L55.625 69.8125ZM39.4688 70.125L40.0225 68.338L40.0145 68.3355L39.4688 70.125ZM33.1875 67.5L34.243 65.9554L31.8741 64.3366L31.3483 67.1572L33.1875 67.5ZM43.4375 45.9375L44.7064 47.3122L44.7121 47.307L44.7177 47.3017L43.4375 45.9375ZM55.5625 45.0312L54.8283 46.752L54.8381 46.7562L54.8479 46.7602L55.5625 45.0312ZM58.8438 47.3438H60.7146V46.7556L60.3781 46.2733L58.8438 47.3438ZM58.8438 55.125L60.4442 56.0937L60.7146 55.6471V55.125H58.8438ZM55.8438 57.4375L56.6617 59.1201L56.6712 59.1154L55.8438 57.4375ZM43.5 56.7188L42.2755 58.1333L42.2859 58.1421L43.5 56.7188ZM30.8341 77.942C33.0008 78.8578 35.8202 79.689 39.2504 80.4513L40.0621 76.7987C36.7423 76.061 34.1659 75.2881 32.2909 74.4955L30.8341 77.942ZM39.2421 80.4494C42.7908 81.255 46.6084 81.6521 50.6875 81.6521V77.9104C46.8499 77.9104 43.3133 77.5367 40.0704 76.8006L39.2421 80.4494ZM50.6875 81.6521C57.118 81.6521 62.5278 80.0002 66.7485 76.5406L64.3765 73.6469C60.9722 76.4373 56.4653 77.9104 50.6875 77.9104V81.6521ZM66.7446 76.5438C71.1408 72.9599 73.1833 67.5415 73.1833 60.6875H69.4417C69.4417 66.7918 67.6509 70.9776 64.3804 73.6437L66.7446 76.5438ZM73.1833 60.6875V36.3438H69.4417V60.6875H73.1833ZM71.3125 34.4729H58.9062V38.2146H71.3125V34.4729ZM57.0354 36.3438V40.5625H60.7771V36.3438H57.0354ZM58.9062 38.6917H58.7812V42.4333H58.9062V38.6917ZM60.2986 39.4681C59.115 37.8273 57.2052 36.5016 54.8172 35.396L53.2453 38.7915C55.3573 39.7692 56.6141 40.7561 57.2639 41.6569L60.2986 39.4681ZM54.8301 35.4021C52.2633 34.1899 49.2015 33.6292 45.7188 33.6292V37.3708C48.8193 37.3708 51.2992 37.8726 53.2324 38.7854L54.8301 35.4021ZM45.7188 33.6292C40.1806 33.6292 35.5732 35.0865 32.1208 38.2056L34.6292 40.9819C37.2184 38.6427 40.8402 37.3708 45.7188 37.3708V33.6292ZM32.1161 38.2099C28.6588 41.355 27.0042 45.6344 27.0042 50.8125H30.7458C30.7458 46.4906 32.0912 43.2908 34.6339 40.9776L32.1161 38.2099ZM27.0042 50.8125V51.3125H30.7458V50.8125H27.0042ZM27.0042 51.3125C27.0042 56.6853 28.7489 61.0726 32.409 64.203L34.841 61.3595C32.1678 59.0732 30.7458 55.8147 30.7458 51.3125H27.0042ZM32.4144 64.2076C35.9876 67.2401 40.5511 68.6833 45.9375 68.6833V64.9417C41.2405 64.9417 37.5958 63.6974 34.8356 61.3549L32.4144 64.2076ZM45.9375 68.6833C49.5479 68.6833 52.598 68.2128 54.9603 67.1412L53.4147 63.7338C51.7353 64.4955 49.2854 64.9417 45.9375 64.9417V68.6833ZM54.9682 67.1377C57.1932 66.116 59.0364 64.8241 60.4174 63.2211L57.5826 60.7789C56.6303 61.8843 55.2651 62.884 53.4068 63.7373L54.9682 67.1377ZM57.1292 62V64.125H60.8708V62H57.1292ZM57.1292 64.125C57.1292 65.1928 56.9057 65.9883 56.5474 66.5922C56.1929 67.1896 55.6388 67.7139 54.7883 68.1392L56.4617 71.4858C57.8612 70.7861 58.9946 69.8 59.7651 68.5016C60.5318 67.2096 60.8708 65.7238 60.8708 64.125H57.1292ZM54.7821 68.1423C52.8213 69.1319 50.7152 69.6292 48.4375 69.6292V73.3708C51.2848 73.3708 53.9703 72.7431 56.4679 71.4827L54.7821 68.1423ZM48.4375 69.6292C45.6091 69.6292 42.8061 69.2005 40.0225 68.338L38.915 71.912C42.0481 72.8828 45.2242 73.3708 48.4375 73.3708V69.6292ZM40.0145 68.3355C37.1119 67.4504 35.2468 66.6413 34.243 65.9554L32.132 69.0446C33.6282 70.0671 35.9506 71.008 38.923 71.9145L40.0145 68.3355ZM31.3483 67.1572L29.7233 75.876L33.4017 76.5615L35.0267 67.8428L31.3483 67.1572ZM43.2771 51.5625V50.8438H39.5354V51.5625H43.2771ZM43.2771 50.8438C43.2771 49.2889 43.7754 48.1717 44.7064 47.3122L42.1686 44.5628C40.3913 46.2033 39.5354 48.3569 39.5354 50.8438H43.2771ZM44.7177 47.3017C45.5575 46.5136 47.1913 45.9021 50.0938 45.9021V42.1604C46.8295 42.1604 44.0258 42.8198 42.1573 44.5733L44.7177 47.3017ZM50.0938 45.9021C51.9803 45.9021 53.5441 46.2041 54.8283 46.752L56.2967 43.3105C54.4559 42.5251 52.3738 42.1604 50.0938 42.1604V45.9021ZM54.8479 46.7602C56.2469 47.3385 56.9725 47.9313 57.3094 48.4142L60.3781 46.2733C59.465 44.9646 58.0031 44.0157 56.2771 43.3023L54.8479 46.7602ZM56.9729 47.3438V55.125H60.7146V47.3438H56.9729ZM57.2433 54.1563C57.0471 54.4804 56.4457 55.0547 55.0163 55.7596L56.6712 59.1154C58.2835 58.3203 59.6821 57.3529 60.4442 56.0937L57.2433 54.1563ZM55.0258 55.7549C53.8652 56.3191 52.2348 56.6604 50.0312 56.6604V60.4021C52.5777 60.4021 54.8223 60.0142 56.6617 59.1201L55.0258 55.7549ZM50.0312 56.6604C47.2955 56.6604 45.6443 56.0888 44.7141 55.2954L42.2859 58.1421C44.189 59.7654 46.892 60.4021 50.0312 60.4021V56.6604ZM44.7245 55.3043C43.8239 54.5247 43.2771 53.3719 43.2771 51.5625H39.5354C39.5354 54.2114 40.3844 56.4961 42.2755 58.1332L44.7245 55.3043ZM78.9688 66H77.0979V67.8708H78.9688V66ZM91.9375 66V67.8708H93.8083V66H91.9375ZM91.9375 51.5625L90.3046 50.6495L90.0667 51.075V51.5625H91.9375ZM96.8125 46.75L97.759 48.3638L97.7705 48.3569L96.8125 46.75ZM107.25 45.0938L106.849 46.9211L106.87 46.9258L106.892 46.93L107.25 45.0938ZM109.438 45.8125L108.578 47.4742L111.308 48.8865V45.8125H109.438ZM109.438 36.0938H111.308V34.8465L110.157 34.3668L109.438 36.0938ZM107.438 35.5L106.984 37.315L107.005 37.3203L107.027 37.3252L107.438 35.5ZM91.8438 42.75V44.6208H93.0111L93.5242 43.5723L91.8438 42.75ZM91.7188 42.75L89.8479 42.7591L89.857 44.6208H91.7188V42.75ZM91.6875 36.3438L93.5583 36.3346L93.5492 34.4729H91.6875V36.3438ZM78.9688 36.3438V34.4729H77.0979V36.3438H78.9688ZM78.9688 67.8708H91.9375V64.1292H78.9688V67.8708ZM93.8083 66V51.5625H90.0667V66H93.8083ZM93.5704 52.4755C94.4708 50.8651 95.8409 49.4888 97.759 48.3637L95.866 45.1363C93.4508 46.5529 91.5708 48.3849 90.3046 50.6495L93.5704 52.4755ZM97.7705 48.3569C99.6476 47.2379 101.66 46.6833 103.844 46.6833V42.9417C100.985 42.9417 98.3107 43.6788 95.8545 45.1431L97.7705 48.3569ZM103.844 46.6833C105.198 46.6833 106.182 46.7747 106.849 46.9211L107.651 43.2664C106.61 43.0378 105.323 42.9417 103.844 42.9417V46.6833ZM106.892 46.93C107.617 47.0716 108.169 47.2625 108.578 47.4742L110.297 44.1508C109.498 43.7375 108.591 43.4493 107.608 43.2575L106.892 46.93ZM111.308 45.8125V36.0938H107.567V45.8125H111.308ZM110.157 34.3668C109.517 34.1002 108.734 33.8742 107.848 33.6748L107.027 37.3252C107.807 37.5008 108.358 37.6706 108.718 37.8207L110.157 34.3668ZM107.891 33.685C106.839 33.422 105.495 33.3167 103.938 33.3167V37.0583C105.38 37.0583 106.369 37.1614 106.984 37.315L107.891 33.685ZM103.938 33.3167C100.902 33.3167 98.0946 34.209 95.5609 35.9613L97.6891 39.0387C99.6137 37.7077 101.682 37.0583 103.938 37.0583V33.3167ZM95.5609 35.9613C93.1316 37.6414 91.2927 39.6198 90.1633 41.9277L93.5242 43.5723C94.3115 41.9635 95.6601 40.442 97.6891 39.0387L95.5609 35.9613ZM91.8438 40.8792H91.7188V44.6208H91.8438V40.8792ZM93.5896 42.7409L93.5583 36.3346L89.8167 36.3529L89.8479 42.7591L93.5896 42.7409ZM91.6875 34.4729H78.9688V38.2146H91.6875V34.4729ZM77.0979 36.3438V66H80.8396V36.3438H77.0979ZM137.906 61.6562L139.774 61.5464L139.47 56.3848L136.401 60.5456L137.906 61.6562ZM139.031 66L137.445 66.9915L137.994 67.8708H139.031V66ZM151.656 66V67.8708H153.527V66H151.656ZM151.656 65.5625H153.527V65.0567L153.272 64.6198L151.656 65.5625ZM145.938 37.9375L144.921 39.5079L144.926 39.5112L145.938 37.9375ZM113.156 46.1562H111.285V48.0169L113.146 48.0271L113.156 46.1562ZM124.656 46.2188L124.646 48.0896L126.527 48.0998V46.2188H124.656ZM126.188 43.1875L127.064 44.8401L127.077 44.8332L127.09 44.826L126.188 43.1875ZM136.25 43.2188L135.277 44.8168L135.285 44.8214L135.292 44.826L136.25 43.2188ZM137.719 47.9375L137.7 49.8082L139.59 49.8267V47.9375H137.719ZM124.938 47.8125L124.956 45.9418L124.953 45.9417L124.938 47.8125ZM113.844 50.0938L114.85 51.671L114.853 51.6688L113.844 50.0938ZM124.094 53.75L123.393 52.0155L123.38 52.0209L124.094 53.75ZM128.844 53.1562L128.863 51.2855L128.854 51.2854H128.844V53.1562ZM137.75 53.25H139.621V51.3988L137.77 51.3793L137.75 53.25ZM124.031 58.8125L122.954 60.3419L122.965 60.3501L122.977 60.3582L124.031 58.8125ZM108.348 56.9688C108.348 60.4964 109.719 63.3958 112.48 65.4408L114.707 62.4342C112.968 61.1459 112.09 59.3994 112.09 56.9688H108.348ZM112.48 65.4408C115.181 67.4412 118.889 68.3083 123.344 68.3083V64.5667C119.299 64.5667 116.507 63.7672 114.707 62.4342L112.48 65.4408ZM123.344 68.3083C127.333 68.3083 130.742 67.8152 133.492 66.7431L132.133 63.2569C129.967 64.1014 127.063 64.5667 123.344 64.5667V68.3083ZM133.492 66.7431C136.082 65.7332 138.166 64.4549 139.412 62.7669L136.401 60.5456C135.771 61.3993 134.459 62.3501 132.133 63.2569L133.492 66.7431ZM136.039 61.7661C136.105 62.8995 136.242 63.911 136.48 64.7565L140.082 63.7435C139.945 63.2557 139.832 62.538 139.774 61.5464L136.039 61.7661ZM136.48 64.7565C136.708 65.5652 137.023 66.3173 137.445 66.9915L140.618 65.0085C140.414 64.6827 140.23 64.2681 140.082 63.7435L136.48 64.7565ZM139.031 67.8708H151.656V64.1292H139.031V67.8708ZM153.527 66V65.5625H149.785V66H153.527ZM153.272 64.6198C152.956 64.0769 152.683 63.3654 152.485 62.4493L148.827 63.2382C149.088 64.4471 149.482 65.5481 150.04 66.5052L153.272 64.6198ZM152.485 62.4493C152.287 61.5299 152.183 60.5278 152.183 59.4375H148.442C148.442 60.7639 148.567 62.0326 148.827 63.2382L152.485 62.4493ZM152.183 59.4375V46.7188H148.442V59.4375H152.183ZM152.183 46.7188C152.183 42.2132 150.488 38.6387 146.949 36.3638L144.926 39.5112C147.22 40.9863 148.442 43.2659 148.442 46.7188H152.183ZM146.954 36.3671C143.593 34.191 138.517 33.2542 132.062 33.2542V36.9958C138.316 36.9958 142.49 37.934 144.921 39.5079L146.954 36.3671ZM132.062 33.2542C125.925 33.2542 120.908 34.2204 117.196 36.345L119.054 39.5925C121.967 37.9254 126.241 36.9958 132.062 36.9958V33.2542ZM117.196 36.345C113.458 38.4844 111.285 41.5307 111.285 45.4688H115.027C115.027 43.1985 116.167 41.2448 119.054 39.5925L117.196 36.345ZM111.285 45.4688V46.1562H115.027V45.4688H111.285ZM113.146 48.0271L124.646 48.0896L124.666 44.3479L113.166 44.2854L113.146 48.0271ZM126.527 46.2188V45.5312H122.785V46.2188H126.527ZM126.527 45.5312C126.527 45.3487 126.567 45.2609 126.605 45.2029C126.651 45.1329 126.768 44.9976 127.064 44.8401L125.311 41.5349C124.587 41.919 123.938 42.4452 123.473 43.1564C123 43.8797 122.785 44.6929 122.785 45.5312H126.527ZM127.09 44.826C127.682 44.5002 128.91 44.2146 131.062 44.2146V40.4729C128.757 40.4729 126.735 40.7498 125.285 41.549L127.09 44.826ZM131.062 44.2146C133.546 44.2146 134.802 44.5277 135.277 44.8168L137.223 41.6207C135.781 40.7432 133.579 40.4729 131.062 40.4729V44.2146ZM135.292 44.826C135.728 45.0853 135.848 45.3307 135.848 45.75H139.59C139.59 43.9609 138.731 42.5189 137.208 41.6115L135.292 44.826ZM135.848 45.75V47.9375H139.59V45.75H135.848ZM137.737 46.0668L124.956 45.9418L124.919 49.6832L137.7 49.8082L137.737 46.0668ZM124.953 45.9417C119.861 45.8989 115.726 46.6651 112.834 48.5187L114.853 51.6688C116.837 50.3974 120.097 49.6427 124.922 49.6833L124.953 45.9417ZM112.838 48.5165C109.844 50.4263 108.348 53.3351 108.348 56.9688H112.09C112.09 54.5191 113.01 52.8445 114.85 51.671L112.838 48.5165ZM124.527 56C124.527 55.719 124.586 55.6258 124.592 55.6166C124.593 55.6159 124.623 55.5554 124.808 55.4791L123.38 52.0209C122.606 52.3404 121.918 52.8529 121.439 53.6021C120.966 54.3429 120.785 55.1769 120.785 56H124.527ZM124.795 55.4845C125.42 55.2319 126.695 55.0271 128.844 55.0271V51.2854C126.618 51.2854 124.726 51.4764 123.393 52.0155L124.795 55.4845ZM128.824 55.027L137.73 55.1207L137.77 51.3793L128.863 51.2855L128.824 55.027ZM135.879 53.25V54.3438H139.621V53.25H135.879ZM135.879 54.3438C135.879 54.848 135.75 55.2327 135.516 55.5646C135.27 55.9155 134.838 56.3017 134.101 56.6704L135.774 60.0171C136.912 59.4483 137.887 58.6991 138.577 57.7167C139.281 56.7152 139.621 55.5687 139.621 54.3438H135.879ZM134.101 56.6704C132.518 57.4617 130.686 57.8792 128.562 57.8792V61.6208C131.189 61.6208 133.607 61.1008 135.774 60.0171L134.101 56.6704ZM128.562 57.8792C126.548 57.8792 125.518 57.5618 125.085 57.2668L122.977 60.3582C124.378 61.3132 126.369 61.6208 128.562 61.6208V57.8792ZM125.109 57.2831C124.743 57.0254 124.527 56.6891 124.527 56H120.785C120.785 57.7692 121.486 59.308 122.954 60.3419L125.109 57.2831ZM155.312 66H153.442V67.8708H155.312V66ZM192.469 66V67.8708H194.34V66H192.469ZM192.469 58.375H194.34V56.5042H192.469V58.375ZM173.031 58.375L171.852 56.9223L167.757 60.2458H173.031V58.375ZM191.438 43.4375L192.616 44.8902L193.308 44.3286V43.4375H191.438ZM191.438 36.3438H193.308V34.4729H191.438V36.3438ZM155.812 36.3438V34.4729H153.942V36.3438H155.812ZM155.812 44.3125H153.942V46.1833H155.812V44.3125ZM173.688 44.3125L174.865 45.7666L178.972 42.4417H173.688V44.3125ZM155.312 59.1875L154.135 57.7334L153.442 58.295V59.1875H155.312ZM155.312 67.8708H192.469V64.1292H155.312V67.8708ZM194.34 66V58.375H190.598V66H194.34ZM192.469 56.5042H173.031V60.2458H192.469V56.5042ZM174.21 59.8277L192.616 44.8902L190.259 41.9848L171.852 56.9223L174.21 59.8277ZM193.308 43.4375V36.3438H189.567V43.4375H193.308ZM191.438 34.4729H155.812V38.2146H191.438V34.4729ZM153.942 36.3438V44.3125H157.683V36.3438H153.942ZM155.812 46.1833H173.688V42.4417H155.812V46.1833ZM172.51 42.8584L154.135 57.7334L156.49 60.6416L174.865 45.7666L172.51 42.8584ZM153.442 59.1875V66H157.183V59.1875H153.442Z" fill="white"/>
</g>
</g>
<defs>
<filter id="filter0_f_102_61" x="0.8125" y="7.0625" width="219.719" height="100.781" filterUnits="userSpaceOnUse" color-interpolation-filters="sRGB">
<feFlood flood-opacity="0" result="BackgroundImageFix"/>
<feBlend mode="normal" in="SourceGraphic" in2="BackgroundImageFix" result="shape"/>
<feGaussianBlur stdDeviation="14.0312" result="effect1_foregroundBlur_102_61"/>
</filter>
<filter id="filter1_f_102_61" x="19.5208" y="25.7708" width="182.302" height="63.3646" filterUnits="userSpaceOnUse" color-interpolation-filters="sRGB">
<feFlood flood-opacity="0" result="BackgroundImageFix"/>
<feBlend mode="normal" in="SourceGraphic" in2="BackgroundImageFix" result="shape"/>
<feGaussianBlur stdDeviation="4.67708" result="effect1_foregroundBlur_102_61"/>
</filter>
<filter id="filter2_ddi_102_61" x="16.7146" y="32.3188" width="187.915" height="68.9771" filterUnits="userSpaceOnUse" color-interpolation-filters="sRGB">
<feFlood flood-opacity="0" result="BackgroundImageFix"/>
<feColorMatrix in="SourceAlpha" type="matrix" values="0 0 0 0 0 0 0 0 0 0 0 0 0 0 0 0 0 0 127 0" result="hardAlpha"/>
<feOffset dy="6.08021"/>
<feGaussianBlur stdDeviation="2.33854"/>
<feColorMatrix type="matrix" values="0 0 0 0 0 0 0 0 0 0.3 0 0 0 0 0.275 0 0 0 0.7 0"/>
<feBlend mode="multiply" in2="BackgroundImageFix" result="effect1_dropShadow_102_61"/>
<feColorMatrix in="SourceAlpha" type="matrix" values="0 0 0 0 0 0 0 0 0 0 0 0 0 0 0 0 0 0 127 0" result="hardAlpha"/>
<feOffset dy="9.35417"/>
<feGaussianBlur stdDeviation="6.08021"/>
<feColorMatrix type="matrix" values="0 0 0 0 0 0 0 0 0 0.6 0 0 0 0 0.6 0 0 0 1 0"/>
<feBlend mode="color-dodge" in2="effect1_dropShadow_102_61" result="effect2_dropShadow_102_61"/>
<feBlend mode="normal" in="SourceGraphic" in2="effect2_dropShadow_102_61" result="shape"/>
<feColorMatrix in="SourceAlpha" type="matrix" values="0 0 0 0 0 0 0 0 0 0 0 0 0 0 0 0 0 0 127 0" result="hardAlpha"/>
<feOffset dx="-0.608021" dy="1.21604"/>
<feGaussianBlur stdDeviation="0.30401"/>
<feComposite in2="hardAlpha" operator="arithmetic" k2="-1" k3="1"/>
<feColorMatrix type="matrix" values="0 0 0 0 1 0 0 0 0 1 0 0 0 0 1 0 0 0 0.5 0"/>
<feBlend mode="normal" in2="shape" result="effect3_innerShadow_102_61"/>
</filter>
<filter id="filter3_f_102_61" x="27.9396" y="34.1896" width="165.465" height="46.5271" filterUnits="userSpaceOnUse" color-interpolation-filters="sRGB">
<feFlood flood-opacity="0" result="BackgroundImageFix"/>
<feBlend mode="normal" in="SourceGraphic" in2="BackgroundImageFix" result="shape"/>
<feGaussianBlur stdDeviation="0.467708" result="effect1_foregroundBlur_102_61"/>
</filter>
<filter id="filter4_f_102_61" x="28.2514" y="34.5014" width="164.841" height="45.9035" filterUnits="userSpaceOnUse" color-interpolation-filters="sRGB">
<feFlood flood-opacity="0" result="BackgroundImageFix"/>
<feBlend mode="normal" in="SourceGraphic" in2="BackgroundImageFix" result="shape"/>
<feGaussianBlur stdDeviation="0.311806" result="effect1_foregroundBlur_102_61"/>
</filter>
<clipPath id="clip0_102_61">
<rect width="221" height="101" fill="white"/>
</clipPath>
</defs>
</svg>
